{
.appVersion = "3207";
.formatVersion = 3;
axes = (
{
name = Weight;
tag = wght;
}
);
classes = (
{
code = "A' V Agrave Aacute Acircumflex Atilde Adieresis Aring AE afii10017";
name = ".Aleft";
},
{
code = "A' V W Agrave Aacute Acircumflex Atilde Adieresis Aring afii10017";
name = ".Aright";
},
{
code = "H' B D E F K L M N P R Egrave Eacute Ecircumflex Edieresis Ntilde Thorn germandbls uni0400";
name = ".Hleft";
},
{
code = "H' J M N Ntilde afii10057 uni040D";
name = ".Hright";
},
{
code = "O' C G Q OE Ccedilla Ograve Oacute Ocircumflex Otilde Odieresis Oslash";
name = ".Oleft";
},
{
code = "O' D D Q Eth Ograve Oacute Ocircumflex Otilde Odieresis Oslash";
name = ".Oright";
},
{
code = "U' Ugrave Uacute Ucircumflex Udieresis";
name = ".U";
},
{
code = "X' afii10039 afii10024";
name = ".Xleft";
},
{
code = "X' K afii10024 afii10039 afii10061 afii10028";
name = ".Xright";
},
{
code = "d' q afii10074 afii10075 afii10077 afii10078 afii10079 afii10081 afii10088 afii10090 afii10091 afii10093 uni045D afii10193 ugrave uacute ucircumflex udieresis";
name = ".dright";
},
{
code = "o' e c";
name = ".e_o";
},
{
code = "e' ae oe egrave eacute ecircumflex edieresis uni0450 afii10071 afii10070";
name = ".eright";
},
{
code = "l' i ";
name = ".l";
},
{
code = "n' b h k m p r ntilde thorn ";
name = ".nleft";
},
{
code = "n' h m ntilde";
name = ".nright";
},
{
code = "o' c d e q oe ccedilla egrave eacute ecircumflex edieresis eth ograve oacute ocircumflex otilde odieresis oslash";
name = ".oleft";
},
{
code = "o' b p ograve oacute ocircumflex otilde odieresis oslash thorn";
name = ".oright";
},
{
code = "v' w y afii10085 afii10110";
name = ".vleft";
},
{
code = "x' afii10072 afii10087";
name = ".xleft";
},
{
code = "x' k afii10072 afii10076 afii10087 afii10109";
name = ".xright";
},
{
code = "A Aacute Acircumflex Adieresis Agrave Aring Atilde uni0200 uni0202";
name = "@MMK_L_A";
},
{
code = "C Ccedilla";
name = "@MMK_L_C";
},
{

glyphs = (
{
glyphname = A;
kernLeft = A;
kernRight = A;
layers = (
{
layerId = "C1664359-F853-4045-A63D-7A2F9FE31172";
shapes = (
{
closed = 1;
nodes = (
(236,0,l),
(41,0,l),
(517,1437,l),
(718,1437,l),
(1193,0,l),
(997,0,l),
(899,327,l),
(335,327,l),
(335,327,l)
);
},
{
closed = 1;
nodes = (
(865,439,l),
(618,1243,l),
(368,439,l),
(368,439,l)
);
}
);
userData = {
org.robofab.postScriptHintData = {
};
};
vertWidth = 0;
width = 1234;
}
);
unicode = 65;
},
{
glyphname = AE;
layers = (
{
layerId = "C1664359-F853-4045-A63D-7A2F9FE31172";
shapes = (
{
closed = 1;
nodes = (
(706,288,l),
(351,288,l),
(240,0,l),
(19,0,l),
(581,1409,l),
(1459,1409,l),
(1459,1263,l),
(894,1263,l),
(894,810,l),
(1400,810,l),
(1400,665,l),
(894,665,l),
(894,146,l),
(1471,146,l),
(1471,0,l),
(706,0,l),
(706,0,l)
);
},
{
closed = 1;
nodes = (
(706,421,l),
(706,1276,l),
(599,960,l),
(387,421,l),
(387,421,l)
);
}
);
userData = {
org.robofab.postScriptHintData = {
};
};
vertWidth = 0;
width = 1576;
}
);
unicode = 198;
},
{
glyphname = B;
layers = (
{
layerId = "C1664359-F853-4045-A63D-7A2F9FE31172";
shapes = (
{
closed = 1;
nodes = (
(595,825,ls),
(709.667,825,o),
(787,848,o),
(835,888,cs),
(883,928,o),
(903,988,o),
(903,1068,cs),
(903,1161.333,o),
(878.167,1212.833,o),
(821.5,1245.5,cs),
(764.833,1278.167,o),
(676.333,1292,o),
(551,1292,cs),
(362,1292,l),
(362,825,l),
(362,825,l)
);
},
{
closed = 1;
nodes = (
(973,529,o),
(944.333,597.333,o),
(883,640,cs),
(821.667,682.667,o),
(729,698,o),
(601,698,cs),
(362,698,l),
(362,144,l),
(604,144,ls),
(725.333,144,o),
(818.667,156.5,o),
(880,194.5,cs),
(941.333,232.5,o),
(973,299.667,o),
(973,417,cs)
);
},
{
closed = 1;
nodes = (
(1151,128.333,o),
(985.333,0,o),
(652,0,cs),
(181,0,l),
(181,1437,l),
(576,1437,ls),
(761.333,1437,o),
(889,1410,o),
(969,1350,cs),
(1049,1290,o),
(1083,1198.667,o),
(1083,1060,cs),
(1083,957.77,o),
(1040.412,888.134,o),
(983.5,839.5,cs),
(924.597,789.165,o),
(859.182,775.388,o),
(827,772,c),
(887.667,767.333,o),
(941.667,751.667,o),
(989,725,cs),
(1029,702.333,o),
(1070.5,668.167,o),
(1100.5,619.5,cs),
(1130.5,570.833,o),
(1151,505.667,o),
(1151,415,cs)
);
}
);
userData = {
org.robofab.postScriptHintData = {
};
};
vertWidth = 0;
width = 1251;
}
);
unicode = 66;
},
{
glyphname = C;
kernLeft = C;
kernRight = C;
layers = (
{
layerId = "C1664359-F853-4045-A63D-7A2F9FE31172";
shapes = (
{
closed = 1;
nodes = (
(531.667,-24,o),
(389.667,16,o),
(287,132,cs),
(184.333,248,o),
(121.333,440.333,o),
(120,727,cs),
(120,1004.333,o),
(182.5,1188.167,o),
(288.5,1303.5,cs),
(394.5,1418.833,o),
(542.333,1464,o),
(713,1464,cs),
(821,1464,o),
(916,1448.667,o),
(984,1434,cs),
(1024,1425.333,o),
(1060,1415.667,o),
(1092,1405,c),
(1108,1250,l),
(1074.667,1262,o),
(1038,1273,o),
(998,1283,cs),
(930,1297.667,o),
(836.667,1314,o),
(734,1314,cs),
(604.667,1314,o),
(501,1276.667,o),
(429,1186,cs),
(357,1095.333,o),
(318,953,o),
(318,729,cs),
(319.333,517,o),
(351.5,361.167,o),
(417.5,264.5,cs),
(483.5,167.833,o),
(583,125.667,o),
(715,127,cs),
(825.667,125.667,o),
(922,141.667,o),
(994,163,cs),
(1035.333,173.667,o),
(1073.333,185.667,o),
(1108,199,c),
(1091,43,l),
(1058.333,30.333,o),
(1021.333,19,o),
(980,9,cs),
(909.333,-8.333,o),
(810.333,-24,o),
(693,-24,cs)
);
}
);
userData = {
org.robofab.postScriptHintData = {
};
};
vertWidth = 0;
width = 1194;
}
);
unicode = 67;
},
{
glyphname = D;
layers = (
{
layerId = "C1664359-F853-4045-A63D-7A2F9FE31172";
shapes = (
{
closed = 1;
nodes = (
(769.667,144,o),
(893.333,182.667,o),
(968,272,cs),
(1042.667,361.333,o),
(1069,509.333,o),
(1069,740,cs),
(1069,928,o),
(1046.167,1062.167,o),
(981.5,1153.5,cs),
(916.833,1244.833,o),
(810.333,1292,o),
(645,1292,cs),
(373,1292,l),
(373,144,l),
(575,144,l),
(575,144,l)
);
},
{
closed = 1;
nodes = (
(181,1437,l),
(593,1437,ls),
(705,1437,o),
(815.333,1428.833,o),
(914,1393.5,cs),
(963.333,1375.833,o),
(1008.833,1351.5,o),
(1050.5,1320.5,cs),
(1133.833,1258.5,o),
(1196.333,1159.333,o),
(1231,1014,cs),
(1248.333,941.333,o),
(1257,852.667,o),
(1257,748,cs),
(1257,291.117,o),
(1135.669,0,o),
(638,0,cs),
(181,0,l),
(181,0,l)
);
}
);
userData = {
org.robofab.postScriptHintData = {
};
};
vertWidth = 0;
width = 1377;
}
);
unicode = 68;
},
{
glyphname = Eth;
layers = (
{
layerId = "C1664359-F853-4045-A63D-7A2F9FE31172";
shapes = (
{
closed = 1;
nodes = (
(194,677,l),
(45,677,l),
(45,806,l),
(194,806,l),
(194,1437,l),
(606,1437,ls),
(718,1437,o),
(828.333,1428.667,o),
(927,1394,cs),
(976.333,1376.667,o),
(1022,1352.667,o),
(1064,1322,cs),
(1148,1260.667,o),
(1210.333,1162,o),
(1245,1018,cs),
(1262.333,946,o),
(1271,856.333,o),
(1271,749,cs),
(1271,579.667,o),
(1258.167,454.167,o),
(1221.5,345.5,cs),
(1203.167,291.167,o),
(1178.833,242.667,o),
(1148.5,200,cs),
(1056.733,70.921,o),
(894.612,0,o),
(652,0,cs),
(194,0,l),
(194,0,l)
);
},
{
closed = 1;
nodes = (
(777.582,139,o),
(906.607,170.824,o),
(982,261.5,cs),
(1031.333,320.833,o),
(1060.833,406.833,o),
(1073.5,523.5,cs),
(1079.833,581.833,o),
(1083,654.333,o),
(1083,741,cs),
(1083,934.333,o),
(1060.333,1065.333,o),
(995,1156,cs),
(929.667,1246.667,o),
(823.333,1293,o),
(658,1293,cs),
(386,1293,l),
(386,806,l),
(612,806,l),
(612,677,l),
(386,677,l),
(386,139,l),
(588,139,l),
(588,139,l)
);
}
);
userData = {
org.robofab.postScriptHintData = {
};
};
vertWidth = 0;
width = 1391;
}
);
unicode = 208;
},
{
glyphname = E;
kernLeft = E;
kernRight = E;
layers = (
{
layerId = "C1664359-F853-4045-A63D-7A2F9FE31172";
shapes = (
{
closed = 1;
nodes = (
(181,1437,l),
(997,1437,l),
(973,1292,l),
(370,1292,l),
(370,809,l),
(862,809,l),
(862,670,l),
(370,670,l),
(370,145,l),
(995,145,l),
(972,0,l),
(181,0,l),
(181,0,l)
);
}
);
userData = {
org.robofab.postScriptHintData = {
};
};
vertWidth = 0;
width = 1086;
}
);
unicode = 69;
},
{
glyphname = F;
layers = (
{
layerId = "C1664359-F853-4045-A63D-7A2F9FE31172";
shapes = (
{
closed = 1;
nodes = (
(181,0,l),
(181,1437,l),
(1015,1437,l),
(991,1292,l),
(366,1292,l),
(366,820,l),
(921,820,l),
(921,672,l),
(366,672,l),
(366,0,l),
(366,0,l)
);
}
);
userData = {
org.robofab.postScriptHintData = {
};
};
vertWidth = 0;
width = 1083;
}
);
unicode = 70;
},
{
glyphname = G;
layers = (
{
layerId = "C1664359-F853-4045-A63D-7A2F9FE31172";
shapes = (
{
closed = 1;
nodes = (
(1070,125,l),
(1019,61,o),
(912,-24,o),
(699,-24,cs),
(373,-24,o),
(120,186,o),
(120,721,cs),
(120,1298,o),
(424,1464,o),
(751,1464,cs),
(919,1464,o),
(1042,1432,o),
(1128,1399,c),
(1142,1240,l),
(1057,1273,o),
(934,1314,o),
(756,1314,cs),
(472,1314,o),
(318,1137,o),
(318,749,cs),
(318,332,o),
(431,127,o),
(717,127,cs),
(891,127,o),
(997,199,o),
(1053,253,c),
(1053,609,l),
(782,609,l),
(763,743,l),
(1212,743,l),
(1212,4,l),
(1108,4,l),
(1108,4,l)
);
}
);
userData = {
org.robofab.postScriptHintData = {
};
};
vertWidth = 0;
width = 1360;
}
);
unicode = 71;
},
{
glyphname = H;
layers = (
{
layerId = "C1664359-F853-4045-A63D-7A2F9FE31172";
shapes = (
{
closed = 1;
nodes = (
(366,677,l),
(366,0,l),
(181,0,l),
(181,1437,l),
(366,1437,l),
(366,817,l),
(1065,817,l),
(1065,1437,l),
(1250,1437,l),
(1250,0,l),
(1065,0,l),
(1065,677,l),
(1065,677,l)
);
}
);
userData = {
org.robofab.postScriptHintData = {
};
};
vertWidth = 0;
width = 1431;
}
);
unicode = 72;
},
{
glyphname = I;
kernLeft = I;
kernRight = I;
layers = (
{
layerId = "C1664359-F853-4045-A63D-7A2F9FE31172";
shapes = (
{
closed = 1;
nodes = (
(189,1437,l),
(372,1437,l),
(372,0,l),
(189,0,l),
(189,0,l)
);
}
);
userData = {
org.robofab.postScriptHintData = {
};
};
vertWidth = 0;
width = 561;
}
);
unicode = 73;
},
{
glyphname = J;
layers = (
{
layerId = "C1664359-F853-4045-A63D-7A2F9FE31172";
shapes = (
{
closed = 1;
nodes = (
(35,53,l),
(127,53,o),
(191,60,o),
(235,80,cs),
(257,90,o),
(274.5,103.333,o),
(287.5,120,cs),
(313.5,153.333,o),
(326,204.333,o),
(330,275,cs),
(332,310.333,o),
(333,351.667,o),
(333,399,cs),
(333,1437,l),
(520,1437,l),
(516,308,ls),
(516,198.667,o),
(496.833,101.333,o),
(433.5,32,cs),
(370.167,-37.333,o),
(261.667,-81,o),
(83,-81,c),
(59,-14,l),
(59,-14,l)
);
}
);
userData = {
org.robofab.postScriptHintData = {
};
};
vertWidth = 0;
width = 701;
}
);
unicode = 74;
},
{
glyphname = K;
layers = (
{
layerId = "C1664359-F853-4045-A63D-7A2F9FE31172";
shapes = (
{
closed = 1;
nodes = (
(637,780,l),
(1269,47,l),
(1269,0,l),
(1077,0,l),
(508,672,l),
(366,530,l),
(366,0,l),
(181,0,l),
(181,1437,l),
(366,1437,l),
(366,740,l),
(1032,1437,l),
(1217,1437,l),
(1217,1384,l),
(1217,1384,l)
);
}
);
userData = {
org.robofab.postScriptHintData = {
};
};
vertWidth = 0;
width = 1289;
}
);
unicode = 75;
},
{
glyphname = L;
layers = (
{
layerId = "C1664359-F853-4045-A63D-7A2F9FE31172";
shapes = (
{
closed = 1;
nodes = (
(181,1437,l),
(366,1437,l),
(366,142,l),
(954,142,l),
(937,0,l),
(181,0,l),
(181,0,l)
);
}
);
userData = {
org.robofab.postScriptHintData = {
};
};
vertWidth = 0;
width = 982;
}
);
unicode = 76;
},
{
glyphname = Lslash;
layers = (
{
layerId = "C1664359-F853-4045-A63D-7A2F9FE31172";
shapes = (
{
closed = 1;
nodes = (
(197,641,l),
(49,577,l),
(49,722,l),
(197,786,l),
(197,1408,l),
(382,1408,l),
(382,862,l),
(729,1014,l),
(729,870,l),
(382,717,l),
(382,145,l),
(970,145,l),
(953,0,l),
(197,0,l),
(197,0,l)
);
}
);
userData = {
org.robofab.postScriptHintData = {
};
};
vertWidth = 0;
width = 1014;
}
);
unicode = 321;
},
{
glyphname = M;
layers = (
{
layerId = "C1664359-F853-4045-A63D-7A2F9FE31172";
shapes = (
{
closed = 1;
nodes = (
(516,1437,l),
(837,380,l),
(905,149,l),
(967,380,l),
(1289,1437,l),
(1563,1437,l),
(1616,0,l),
(1433,0,l),
(1402,988,l),
(1401,1286,l),
(1316,941,l),
(1021,32,l),
(784,32,l),
(489,941,l),
(405,1286,l),
(402,987,l),
(362,0,l),
(178,0,l),
(242,1437,l),
(242,1437,l)
);
}
);
userData = {
org.robofab.postScriptHintData = {
};
};
vertWidth = 0;
width = 1794;
}
);
unicode = 77;
},
{
glyphname = N;
kernLeft = N;
kernRight = N;
layers = (
{
layerId = "C1664359-F853-4045-A63D-7A2F9FE31172";
shapes = (
{
closed = 1;
nodes = (
(357,0,l),
(181,0,l),
(181,1437,l),
(371,1437,l),
(1122,289,l),
(1122,1437,l),
(1298,1437,l),
(1298,0,l),
(1116,1,l),
(357,1148,l),
(357,1148,l)
);
}
);
userData = {
org.robofab.postScriptHintData = {
};
};
vertWidth = 0;
width = 1479;
}
);
unicode = 78;
},
{
glyphname = O;
kernLeft = O;
kernRight = O;
layers = (
{
layerId = "C1664359-F853-4045-A63D-7A2F9FE31172";
shapes = (
{
closed = 1;
nodes = (
(311,534,o),
(338.333,385.5,o),
(401,283.5,cs),
(463.667,181.5,o),
(559.333,127,o),
(698,127,cs),
(838,127,o),
(934.333,181.5,o),
(997,283.5,cs),
(1059.667,385.5,o),
(1087,534,o),
(1087,722,cs),
(1087,908.667,o),
(1059.667,1056.667,o),
(997,1158,cs),
(934.333,1259.333,o),
(838,1314,o),
(698,1314,cs),
(560.667,1314,o),
(463.5,1259.333,o),
(401.5,1158,cs),
(339.5,1056.667,o),
(311,908.667,o),
(311,722,cs)
);
},
{
closed = 1;
nodes = (
(120,1223.333,o),
(322,1464,o),
(698,1464,cs),
(1076.667,1464,o),
(1279,1223.333,o),
(1279,722,cs),
(1279,215.333,o),
(1076.667,-24,o),
(698,-24,cs),
(322.003,-24,o),
(120,216.663,o),
(120,722,cs)
);
}
);
userData = {
org.robofab.postScriptHintData = {
};
};
vertWidth = 0;
width = 1399;
}
);
unicode = 79;
},
{
glyphname = Oslash;
layers = (
{
layerId = "C1664359-F853-4045-A63D-7A2F9FE31172";
shapes = (
{
closed = 1;
nodes = (
(365,62,l),
(201.667,174.667,o),
(120,394,o),
(120,720,cs),
(120,1224,o),
(321,1466,o),
(697,1466,cs),
(802.333,1466,o),
(897,1444.667,o),
(977,1402,c),
(1060,1586,l),
(1117,1554,l),
(1033,1370,l),
(1199.667,1256.667,o),
(1278,1038.667,o),
(1278,720,cs),
(1278,210.667,o),
(1075.667,-30,o),
(697,-30,cs),
(591,-30,o),
(499,-10.667,o),
(421,28,c),
(346,-135,l),
(289,-106,l),
(289,-106,l)
);
},
{
closed = 1;
nodes = (
(837,117,o),
(933.333,172.333,o),
(996,275,cs),
(1058.667,377.667,o),
(1086,530.667,o),
(1086,720,cs),
(1086,938.667,o),
(1053,1110,o),
(961,1214,c),
(488,176,l),
(544,136.667,o),
(613.667,117,o),
(697,117,cs)
);
},
{
closed = 1;
nodes = (
(311,490.667,o),
(349.667,324.667,o),
(439,222,c),
(911,1257,l),
(852.333,1301,o),
(781,1319,o),
(697,1319,cs),
(421.305,1319,o),
(311,1094.81,o),
(311,720,cs)
);
}
);
userData = {
org.robofab.postScriptHintData = {
};
};
vertWidth = 0;
width = 1398;
}
);
unicode = 216;
},
{
glyphname = OE;
layers = (
{
layerId = "C1664359-F853-4045-A63D-7A2F9FE31172";
shapes = (
{
closed = 1;
nodes = (
(120,1006.667,o),
(185,1184,o),
(289,1300,cs),
(393,1416,o),
(535,1464,o),
(691,1464,cs),
(842.259,1464,o),
(941.667,1413.5,o),
(1004,1354,cs),
(1038,1321.333,o),
(1063.333,1284.333,o),
(1080,1243,c),
(1080,1437,l),
(1878,1437,l),
(1878,1292,l),
(1265,1292,l),
(1265,826,l),
(1795,826,l),
(1795,681,l),
(1265,681,l),
(1265,146,l),
(1888,146,l),
(1888,0,l),
(1080,0,l),
(1080,216,l),
(1062.667,164,o),
(1037,125,o),
(1003,99,c),
(944.723,40.723,o),
(848.284,-18,o),
(691,-18,cs),
(377.834,-18,o),
(120,176.093,o),
(120,724,cs)
);
},
{
closed = 1;
nodes = (
(318,494.667,o),
(355.667,349,o),
(421,257,cs),
(486.333,165,o),
(579,130,o),
(691,130,cs),
(804.333,130,o),
(898.667,165,o),
(964,257,cs),
(1029.333,349,o),
(1066,494.667,o),
(1066,724,cs),
(1066,961.333,o),
(1029.333,1101.333,o),
(964,1192,cs),
(898.667,1282.667,o),
(804.333,1317,o),
(691,1317,cs),
(579,1317,o),
(486.333,1282.667,o),
(421,1192,cs),
(355.667,1101.333,o),
(318,961.333,o),
(318,724,cs)
);
}
);
userData = {
org.robofab.postScriptHintData = {
};
};
vertWidth = 0;
width = 1988;
}
);
unicode = 338;
},
{
glyphname = P;
layers = (
{
layerId = "C1664359-F853-4045-A63D-7A2F9FE31172";
shapes = (
{
closed = 1;
nodes = (
(701.333,717,o),
(804.5,736.667,o),
(866.5,782,cs),
(928.5,827.333,o),
(950,894.667,o),
(950,1000,cs),
(950,1125.333,o),
(930,1196.5,o),
(866,1238.5,cs),
(802,1280.5,o),
(693,1293,o),
(513,1293,cs),
(366,1293,l),
(366,717,l),
(540,717,l),
(540,717,l)
);
},
{
closed = 1;
nodes = (
(1143,835.333,o),
(1096.167,731.667,o),
(995.5,665,cs),
(894.833,598.333,o),
(740,571,o),
(524,571,cs),
(429,571,ls),
(409,571,o),
(388,571.333,o),
(366,572,c),
(366,0,l),
(181,0,l),
(181,1437,l),
(490,1437,ls),
(748.667,1437,o),
(911.333,1411,o),
(1010,1343,cs),
(1108.667,1275,o),
(1143,1167.333,o),
(1143,998,cs)
);
}
);
userData = {
org.robofab.postScriptHintData = {
};
};
vertWidth = 0;
width = 1221;
}
);
unicode = 80;
},
{
glyphname = Thorn;
layers = (
{
layerId = "C1664359-F853-4045-A63D-7A2F9FE31172";
shapes = (
{
closed = 1;
nodes = (
(705.333,512,o),
(808.5,531.833,o),
(870.5,576.5,cs),
(932.5,621.167,o),
(954,689.667,o),
(954,787,cs),
(954,1025.453,o),
(873.243,1071,o),
(517,1071,cs),
(370,1071,l),
(370,512,l),
(544,512,l),
(544,512,l)
);
},
{
closed = 1;
nodes = (
(1147,630.333,o),
(1100.167,526.5,o),
(999.5,460.5,cs),
(898.833,394.5,o),
(744,367,o),
(528,367,cs),
(433,367,ls),
(413,367,o),
(392,367.333,o),
(370,368,c),
(370,0,l),
(185,0,l),
(185,1409,l),
(370,1409,l),
(371,1216,l),
(494,1216,ls),
(752.667,1216,o),
(915.333,1189.833,o),
(1014,1122.5,cs),
(1112.667,1055.167,o),
(1147,947.667,o),
(1147,785,cs)
);
}
);
userData = {
org.robofab.postScriptHintData = {
};
};
vertWidth = 0;
width = 1226;
}
);
unicode = 222;
},
{
glyphname = Q;
layers = (
{
layerId = "C1664359-F853-4045-A63D-7A2F9FE31172";
shapes = (
{
closed = 1;
nodes = (
(120,982,o),
(175,1169.833,o),
(275,1290.5,cs),
(375,1411.167,o),
(518.667,1464,o),
(696,1464,cs),
(876,1464,o),
(1020,1411.167,o),
(1120,1290.5,cs),
(1220,1169.833,o),
(1275,982,o),
(1275,722,cs),
(1275,249.996,o),
(1086.331,26,o),
(801,-14,c),
(887.178,-83.605,o),
(981.286,-163.767,o),
(1151,-265,c),
(1151,-265.929,o),
(1135.404,-289.694,o),
(1105,-331.5,cs),
(1077.211,-369.71,o),
(1059,-398.982,o),
(1059,-400,c),
(959,-345.333,o),
(866.5,-278.667,o),
(788.5,-212,cs),
(710.5,-145.333,o),
(645.333,-78.667,o),
(600,-20,c),
(449.333,-1.333,o),
(329.667,66.5,o),
(247,188.5,cs),
(164.333,310.5,o),
(120,487.333,o),
(120,722,cs)
);
},
{
closed = 1;
nodes = (
(311,535.333,o),
(338.333,384.5,o),
(401,282.5,cs),
(463.667,180.5,o),
(559.333,127,o),
(698,127,cs),
(835.333,127,o),
(932.5,180.5,o),
(994.5,282.5,cs),
(1056.5,384.5,o),
(1084,535.333,o),
(1084,722,cs),
(1084,907.333,o),
(1055.5,1058,o),
(993.5,1158,cs),
(931.5,1258,o),
(834,1314,o),
(698,1314,cs),
(560.667,1314,o),
(463.5,1258,o),
(401.5,1158,cs),
(339.5,1058,o),
(311,907.333,o),
(311,722,cs)
);
}
);
userData = {
org.robofab.postScriptHintData = {
};
};
vertWidth = 0;
width = 1395;
}
);
unicode = 81;
},
{
glyphname = R;
kernLeft = R;
kernRight = R;
layers = (
{
layerId = "C1664359-F853-4045-A63D-7A2F9FE31172";
shapes = (
{
closed = 1;
nodes = (
(979,0,l),
(569,600,l),
(369,600,l),
(369,0,l),
(181,0,l),
(181,1437,l),
(611,1437,ls),
(927.363,1437,o),
(1114,1364.812,o),
(1114,1028,cs),
(1114,727.071,o),
(936.395,639.866,o),
(756,618,c),
(1160,57,l),
(1160,0,l),
(1160,0,l)
);
},
{
closed = 1;
nodes = (
(593,740,ls),
(726.333,740,o),
(812.5,756.333,o),
(866.5,799,cs),
(920.5,841.667,o),
(941,908.333,o),
(941,1011,cs),
(941,1135,o),
(919.5,1205.833,o),
(861.5,1246.5,cs),
(803.5,1287.167,o),
(707.667,1299,o),
(561,1299,cs),
(369,1299,l),
(369,740,l),
(369,740,l)
);
}
);
userData = {
org.robofab.postScriptHintData = {
};
};
vertWidth = 0;
width = 1230;
}
);
unicode = 82;
},
{
glyphname = S;
kernLeft = S;
kernRight = S;
layers = (
{
layerId = "C1664359-F853-4045-A63D-7A2F9FE31172";
shapes = (
{
closed = 1;
nodes = (
(103,1372,o),
(314,1465,o),
(586,1465,cs),
(705,1465,o),
(828,1443,o),
(936,1408,c),
(957,1244,l),
(881,1275,o),
(728,1313,o),
(584,1313,cs),
(400,1313,o),
(276,1266,o),
(276,1091,cs),
(280,964,o),
(341,910,o),
(586,835,cs),
(885,736,o),
(1024,673,o),
(1024,376,cs),
(1024,130,o),
(881,-24,o),
(533,-24,cs),
(336,-24,o),
(218,18,o),
(143,55,c),
(117,213,l),
(204,170,o),
(336,127,o),
(515,127,cs),
(719,127,o),
(838,181,o),
(838,380,cs),
(838,551,o),
(764,599,o),
(490,686,cs),
(206,770,o),
(94,863,o),
(96,1097,cs)
);
}
);
userData = {
org.robofab.postScriptHintData = {
};
};
vertWidth = 0;
width = 1118;
}
);
unicode = 83;
},
{
glyphname = T;
kernLeft = T;
kernRight = T;
layers = (
{
layerId = "C1664359-F853-4045-A63D-7A2F9FE31172";
shapes = (
{
closed = 1;
nodes = (
(628,0,l),
(441,0,l),
(441,1293,l),
(29,1293,l),
(29,1437,l),
(1043,1437,l),
(1019,1293,l),
(628,1293,l),
(628,1293,l)
);
}
);
userData = {
org.robofab.postScriptHintData = {
};
};
vertWidth = 0;
width = 1072;
}
);
unicode = 84;
},
{
glyphname = U;
kernLeft = U;
kernRight = U;
layers = (
{
layerId = "C1664359-F853-4045-A63D-7A2F9FE31172";
shapes = (
{
closed = 1;
nodes = (
(962.939,127,o),
(1073,224.795,o),
(1073,513,cs),
(1073,1437,l),
(1263,1437,l),
(1263,500,ls),
(1263,86.834,o),
(1032.908,-24,o),
(721,-24,cs),
(399.637,-24,o),
(173,90.404,o),
(173,501,cs),
(173,1437,l),
(364,1437,l),
(364,513,ls),
(364,363.667,o),
(390.5,265.333,o),
(448.5,208,cs),
(506.5,150.667,o),
(596,127,o),
(720,127,cs)
);
}
);
userData = {
org.robofab.postScriptHintData = {
};
};
vertWidth = 0;
width = 1436;
}
);
unicode = 85;
},
{
glyphname = V;
layers = (
{
layerId = "C1664359-F853-4045-A63D-7A2F9FE31172";
shapes = (
{
closed = 1;
nodes = (
(45,1437,l),
(256,1437,l),
(520,421,l),
(598,94,l),
(672,421,l),
(929,1437,l),
(1143,1437,l),
(731,0,l),
(459,0,l),
(459,0,l)
);
}
);
userData = {
org.robofab.postScriptHintData = {
};
};
vertWidth = 0;
width = 1189;
}
);
unicode = 86;
},
{
glyphname = W;
layers = (
{
layerId = "C1664359-F853-4045-A63D-7A2F9FE31172";
shapes = (
{
closed = 1;
nodes = (
(994,943,l),
(929,1262,l),
(866,942,l),
(642,0,l),
(366,0,l),
(79,1437,l),
(272,1437,l),
(476,325,l),
(512,124,l),
(550,322,l),
(794,1376,l),
(1066,1376,l),
(1311,321,l),
(1350,124,l),
(1386,325,l),
(1588,1437,l),
(1777,1437,l),
(1494,0,l),
(1218,0,l),
(1218,0,l)
);
}
);
userData = {
org.robofab.postScriptHintData = {
};
};
vertWidth = 0;
width = 1858;
}
);
unicode = 87;
},
{
glyphname = X;
layers = (
{
layerId = "C1664359-F853-4045-A63D-7A2F9FE31172";
shapes = (
{
closed = 1;
nodes = (
(269,0,l),
(61,0,l),
(419,728,l),
(64,1437,l),
(272,1437,l),
(494,953,l),
(560,809,l),
(626,953,l),
(848,1437,l),
(1057,1437,l),
(697,728,l),
(1059,0,l),
(851,0,l),
(626,485,l),
(560,626,l),
(494,484,l),
(494,484,l)
);
}
);
userData = {
org.robofab.postScriptHintData = {
};
};
vertWidth = 0;
width = 1120;
}
);
unicode = 88;
},
{
glyphname = Y;
kernLeft = Y;
kernRight = Y;
layers = (
{
layerId = "C1664359-F853-4045-A63D-7A2F9FE31172";
shapes = (
{
closed = 1;
nodes = (
(1107,1437,l),
(667,450,l),
(667,0,l),
(465,0,l),
(465,449,l),
(27,1437,l),
(237,1437,l),
(467,871,l),
(565,609,l),
(572,609,l),
(666,871,l),
(899,1437,l),
(899,1437,l)
);
}
);
userData = {
org.robofab.postScriptHintData = {
};
};
vertWidth = 0;
width = 1133;
}
);
unicode = 89;
},
{
glyphname = Z;
kernLeft = Z;
kernRight = Z;
layers = (
{
layerId = "C1664359-F853-4045-A63D-7A2F9FE31172";
shapes = (
{
closed = 1;
nodes = (
(619,972,l),
(840,1292,l),
(638,1287,l),
(88,1287,l),
(112,1437,l),
(1004,1437,l),
(1020,1273,l),
(392,291,l),
(281,141,l),
(484,147,l),
(1006,147,l),
(983,0,l),
(107,0,l),
(92,156,l),
(92,156,l)
);
}
);
userData = {
org.robofab.postScriptHintData = {
};
};
vertWidth = 0;
width = 1104;
}
);
unicode = 90;
},
{
glyphname = a;
kernLeft = a;
kernRight = a;
layers = (
{
layerId = "C1664359-F853-4045-A63D-7A2F9FE31172";
shapes = (
{
closed = 1;
nodes = (
(446,453,o),
(245,443,o),
(245,268,cs),
(245,165,o),
(314,117,o),
(435,117,cs),
(571,117,o),
(662,164,o),
(716,204,c),
(716,447,l),
(667,450,l),
(564,453,l),
(564,453,l)
);
},
{
closed = 1;
nodes = (
(900,143,o),
(912,136,o),
(960,136,cs),
(975,136,o),
(992,137,o),
(1006,137,c),
(992,2,l),
(992,2,o),
(912,-3,o),
(881,-3,cs),
(767,-3,o),
(730,80,o),
(730,117,c),
(687,58,o),
(592,-18,o),
(374,-18,cs),
(196,-18,o),
(76,96,o),
(76,275,cs),
(76,514,o),
(302,568,o),
(534,568,cs),
(581,568,o),
(626,564,o),
(661,561,cs),
(716,553,l),
(716,666,ls),
(716,879,o),
(656,912,o),
(485,912,cs),
(351,912,o),
(236,878,o),
(157,848,c),
(177,996,l),
(240,1023,o),
(337,1053,o),
(499,1053,cs),
(823,1053,o),
(900,935,o),
(900,611,cs),
(900,221,l),
(900,221,l)
);
}
);
userData = {
org.robofab.postScriptHintData = {
};
};
vertWidth = 0;
width = 1074;
}
);
unicode = 97;
},
{
glyphname = ae;
layers = (
{
layerId = "C1664359-F853-4045-A63D-7A2F9FE31172";
shapes = (
{
closed = 1;
nodes = (
(1461.333,11.333,o),
(1433.333,3.333,o),
(1402,-4,cs),
(1348.667,-16,o),
(1275.333,-28,o),
(1190,-28,cs),
(1036,-28,o),
(920,20,o),
(842,116,c),
(822,96,o),
(776.667,60.833,o),
(702,29.5,cs),
(627.333,-1.833,o),
(523.333,-28,o),
(386,-28,cs),
(203.825,-28,o),
(82,78.552,o),
(82,268,cs),
(82,397.777,o),
(155.022,479.81,o),
(263,517.5,cs),
(375.949,556.926,o),
(501.377,558.873,o),
(604,555,cs),
(618,553.667,o),
(632,552.667,o),
(646,552,cs),
(660,551.333,o),
(672.667,550.333,o),
(684,549,cs),
(696.667,547.667,o),
(709.333,546.667,o),
(722,546,c),
(722,651,ls),
(722,739,o),
(710.5,796.833,o),
(684.5,833.5,cs),
(658.5,870.167,o),
(615.333,886.667,o),
(554,892,cs),
(422,904,o),
(288.333,880,o),
(163,836,c),
(183,969,l),
(299.697,1028.705,o),
(441.257,1042.895,o),
(572,1032,cs),
(717.333,1020,o),
(814.667,964.333,o),
(840,839,c),
(914.313,987.625,o),
(1039.129,1035,o),
(1171,1035,cs),
(1423.562,1035,o),
(1546.69,862.206,o),
(1552,679,cs),
(1552,627.083,o),
(1543.085,526.424,o),
(1537,496,c),
(914,496,l),
(914,460,ls),
(914,220.747,o),
(1014.372,135.616,o),
(1150,117,cs),
(1288.761,101.862,o),
(1432.407,136.757,o),
(1510,154,c),
(1486,20,l),
(1486,20,l)
);
},
{
closed = 1;
nodes = (
(427.028,445,o),
(251,433.574,o),
(251,261,cs),
(251,151.667,o),
(319.667,106,o),
(441,106,cs),
(527.667,106,o),
(604.5,128.833,o),
(662.5,153.5,cs),
(720.5,178.167,o),
(759.667,206.333,o),
(773,217,c),
(747.475,275.707,o),
(728.792,371.994,o),
(726,439,c),
(708.667,439.667,o),
(691.333,440.667,o),
(674,442,cs),
(643.333,443.333,o),
(604.667,445,o),
(570,445,cs)
);
},
{
closed = 1;
nodes = (
(1109.333,898,o),
(1049.5,880.333,o),
(1003.5,835,cs),
(957.5,789.667,o),
(925,717.333,o),
(917,608,c),
(1392,608,l),
(1392.667,607.333,o),
(1393,612.5,o),
(1393,623.5,cs),
(1393,634.5,o),
(1393,645.333,o),
(1393,656,cs),
(1387.614,828.35,o),
(1296.768,898,o),
(1176,898,cs)
);
}
);
userData = {
org.robofab.postScriptHintData = {
};
};
vertWidth = 0;
width = 1648;
}
);
unicode = 230;
},
{
glyphname = b;
layers = (
{
layerId = "C1664359-F853-4045-A63D-7A2F9FE31172";
shapes = (
{
closed = 1;
nodes = (
(158,1418,l),
(343,1437,l),
(343,956,l),
(367,972,o),
(394.333,986.333,o),
(425,999,cs),
(477,1021.667,o),
(549,1043,o),
(637,1043,cs),
(847.666,1043,o),
(1028,885.668,o),
(1028,507,cs),
(1028,312.333,o),
(975.5,180.667,o),
(897.5,98,cs),
(819.5,15.333,o),
(717.333,-18,o),
(616,-18,cs),
(520,-18,o),
(446.667,10.333,o),
(396,41,cs),
(366.667,58.333,o),
(341.333,78.333,o),
(320,101,c),
(294,-9,l),
(158,0,l),
(158,0,l)
);
},
{
closed = 1;
nodes = (
(363,199,o),
(385.667,183,o),
(411,169,cs),
(453.667,145,o),
(514.667,122,o),
(588,122,cs),
(657.333,122,o),
(721.5,147.833,o),
(767.5,208.5,cs),
(813.5,269.167,o),
(843,364.333,o),
(843,503,cs),
(843,755,o),
(763.667,901,o),
(601,901,cs),
(527.667,901,o),
(464.667,881,o),
(418,861,cs),
(391.333,849,o),
(366.333,836,o),
(343,822,c),
(343,217,l),
(343,217,l)
);
}
);
userData = {
org.robofab.postScriptHintData = {
};
};
vertWidth = 0;
width = 1134;
}
);
unicode = 98;
},
{
glyphname = c;
kernLeft = o;
kernRight = c;
layers = (
{
layerId = "C1664359-F853-4045-A63D-7A2F9FE31172";
shapes = (
{
closed = 1;
nodes = (
(106,642,o),
(130.833,749,o),
(171.5,829,cs),
(191.833,869,o),
(215.833,902.5,o),
(243.5,929.5,cs),
(329.148,1013.084,o),
(434.096,1043,o),
(543,1043,cs),
(631,1043,o),
(704,1029.667,o),
(756,1015,cs),
(786.667,1007,o),
(814,997.667,o),
(838,987,c),
(853,852,l),
(827,861.333,o),
(798.667,869.667,o),
(768,877,cs),
(716,889,o),
(646,902,o),
(570,902,cs),
(480.667,902,o),
(411.5,873.833,o),
(365.5,810.5,cs),
(319.5,747.167,o),
(295,647.667,o),
(295,509,cs),
(295,377,o),
(319.5,275.833,o),
(365.5,212.5,cs),
(411.5,149.167,o),
(480.667,122,o),
(570,122,cs),
(646,122,o),
(717,134,o),
(769,146,cs),
(799.667,153.333,o),
(828,161.333,o),
(854,170,c),
(838,37,l),
(814,26.333,o),
(787,17,o),
(757,9,cs),
(706.333,-5.667,o),
(633.333,-18,o),
(548,-18,cs),
(437.333,-18,o),
(327.833,12.5,o),
(244.5,94.5,cs),
(161.167,176.5,o),
(106,312.667,o),
(106,506,cs)
);
}
);
userData = {
org.robofab.postScriptHintData = {
};
};
vertWidth = 0;
width = 925;
}
);
unicode = 99;
},
{
glyphname = d;
kernLeft = o;
layers = (
{
layerId = "C1664359-F853-4045-A63D-7A2F9FE31172";
shapes = (
{
closed = 1;
nodes = (
(413.333,-18,o),
(311.167,15.333,o),
(234.5,98,cs),
(157.833,180.667,o),
(106,312.333,o),
(106,507,cs),
(106,885.668,o),
(283,1043,o),
(499,1043,cs),
(584.333,1043,o),
(657.667,1022.667,o),
(711,1004,cs),
(742.333,992.667,o),
(770.667,980,o),
(796,966,c),
(796,1418,l),
(979,1437,l),
(979,0,l),
(836,-8,l),
(804,102,l),
(784,79.333,o),
(760,59.333,o),
(732,42,cs),
(684,11.333,o),
(612,-18,o),
(512,-18,cs)
);
},
{
closed = 1;
nodes = (
(615.667,122,o),
(678.667,146,o),
(724,170,cs),
(750.667,184,o),
(774.667,200.333,o),
(796,219,c),
(796,833,l),
(771.333,845.667,o),
(745,857,o),
(717,867,cs),
(667.667,884.333,o),
(602.667,901,o),
(528,901,cs),
(368,901,o),
(290,756.333,o),
(290,503,cs),
(290,364.333,o),
(318.5,269.167,o),
(364.5,208.5,cs),
(410.5,147.833,o),
(473,122,o),
(541,122,cs)
);
}
);
userData = {
org.robofab.postScriptHintData = {
};
};
vertWidth = 0;
width = 1135;
}
);
unicode = 100;
},
{
glyphname = eth;
layers = (
{
layerId = "C1664359-F853-4045-A63D-7A2F9FE31172";
shapes = (
{
closed = 1;
nodes = (
(571,1057,l),
(766,1122,l),
(721.272,1213.942,o),
(621.151,1337.047,o),
(562,1372,c),
(726,1371,l),
(804.667,1315,o),
(865.333,1247.333,o),
(912,1170,c),
(1113,1240,l),
(1149,1129,l),
(971,1067,l),
(1051,905.667,o),
(1086,739,o),
(1086,567,cs),
(1086,222.998,o),
(920.552,-18,o),
(599,-18,cs),
(427,-18,o),
(304,36.333,o),
(224,119,cs),
(144,201.667,o),
(106,314.333,o),
(106,429,cs),
(106,542.333,o),
(136,643,o),
(204,715,cs),
(272,787,o),
(378.667,831,o),
(532,831,cs),
(628,831,o),
(712,804.167,o),
(776,775.5,cs),
(840.05,746.811,o),
(883.996,714.004,o),
(895,703,c),
(892.362,803.226,o),
(865.755,928.846,o),
(815,1017,c),
(607,947,l),
(607,947,l)
);
},
{
closed = 1;
nodes = (
(363.058,693,o),
(286,588.073,o),
(286,426,cs),
(286,220.667,o),
(392.333,125,o),
(591,125,cs),
(816.207,125,o),
(893,304.193,o),
(893,523,cs),
(893,582,l),
(859.667,602,o),
(824.333,620.333,o),
(787,637,cs),
(723,665,o),
(635.333,693,o),
(546,693,cs)
);
}
);
userData = {
org.robofab.postScriptHintData = {
};
};
vertWidth = 0;
width = 1202;
}
);
unicode = 240;
},
{
glyphname = e;
kernLeft = o;
kernRight = e;
layers = (
{
layerId = "C1664359-F853-4045-A63D-7A2F9FE31172";
shapes = (
{
closed = 1;
nodes = (
(494.333,906,o),
(434.667,888.333,o),
(388,843,cs),
(341.333,797.667,o),
(308,728,o),
(300,608,c),
(773,608,l),
(773,618.667,o),
(773.333,627,o),
(774,633,cs),
(774.667,638.333,o),
(775,643.667,o),
(775,649,cs),
(775,654.333,o),
(775,659.333,o),
(775,664,cs),
(769.707,833.384,o),
(679.644,906,o),
(557,906,cs)
);
},
{
closed = 1;
nodes = (
(849,21.333,o),
(822.333,13.333,o),
(793,6,cs),
(742.333,-6,o),
(673.333,-18,o),
(592,-18,cs),
(269.333,-18,o),
(106,155.667,o),
(106,501,cs),
(106,694.333,o),
(154,825,o),
(234,913,cs),
(314,1001,o),
(426.333,1043,o),
(553,1043,cs),
(801.212,1043,o),
(928.605,873.144,o),
(934,687,cs),
(934,632.318,o),
(925.17,519.899,o),
(918,496,c),
(297,496,l),
(297,460,ls),
(297,200.523,o),
(421.942,122,o),
(605,122,cs),
(681,122,o),
(751.667,132.333,o),
(805,143,cs),
(836.333,149,o),
(865.333,156,o),
(892,164,c),
(873,30,l),
(873,30,l)
);
}
);
userData = {
org.robofab.postScriptHintData = {
};
};
vertWidth = 0;
width = 1017;
}
);
unicode = 101;
},
{
glyphname = f;
layers = (
{
layerId = "C1664359-F853-4045-A63D-7A2F9FE31172";
shapes = (
{
closed = 1;
nodes = (
(229,921,l),
(53,921,l),
(53,1025,l),
(230,1025,l),
(230,1034,ls),
(232.667,1175.333,o),
(254.5,1276.667,o),
(300.5,1342,cs),
(346.5,1407.333,o),
(417.333,1437,o),
(516,1437,cs),
(576,1437,o),
(625.333,1427.667,o),
(660,1417,cs),
(680,1411,o),
(697.667,1404.667,o),
(713,1398,c),
(727,1278,l),
(711,1282.667,o),
(694.333,1287,o),
(677,1291,cs),
(646.333,1297.667,o),
(607.667,1304,o),
(569,1304,cs),
(448.305,1304,o),
(412,1260.151,o),
(412,1075,cs),
(412,1025,l),
(685,1025,l),
(685,921,l),
(412,921,l),
(412,0,l),
(229,0,l),
(229,0,l)
);
}
);
userData = {
org.robofab.postScriptHintData = {
};
};
vertWidth = 0;
width = 721;
}
);
unicode = 102;
},
{
glyphname = g;
kernLeft = o;
layers = (
{
layerId = "C1664359-F853-4045-A63D-7A2F9FE31172";
shapes = (
{
closed = 1;
nodes = (
(305.667,-291,o),
(330.333,-298,o),
(357,-304,cs),
(402.333,-314.667,o),
(463,-325,o),
(531,-325,cs),
(631,-325,o),
(693.333,-307.167,o),
(732,-254.5,cs),
(770.667,-201.833,o),
(783.667,-118.333,o),
(785,39,cs),
(785,72,l),
(763.667,58.667,o),
(739,46.667,o),
(711,36,cs),
(663,17.333,o),
(593.333,0,o),
(504,0,cs),
(401.333,0,o),
(302.5,36.5,o),
(228.5,118.5,cs),
(154.5,200.5,o),
(106,330.333,o),
(106,509,cs),
(106,695.667,o),
(142.833,829.333,o),
(211.5,916,cs),
(280.167,1002.667,o),
(379.667,1043,o),
(505,1043,cs),
(668.27,1043,o),
(767.252,972.598,o),
(818,932,c),
(851,1031,l),
(971,1031,l),
(971,67,ls),
(971,-127.667,o),
(946.333,-259.167,o),
(881,-342.5,cs),
(815.667,-425.833,o),
(708.667,-461,o),
(546,-461,cs),
(466,-461,o),
(405.333,-449.667,o),
(364,-439,cs),
(340,-432.333,o),
(319.667,-425,o),
(303,-417,c),
(283,-283,l),
(283,-283,l)
);
},
{
closed = 1;
nodes = (
(539,140,ls),
(616.333,141.333,o),
(677.333,156.333,o),
(720,171,cs),
(744.667,179.667,o),
(766.333,189.333,o),
(785,200,c),
(785,822,l),
(763,836,o),
(738.667,849,o),
(712,861,cs),
(666.667,881,o),
(605,901,o),
(533,901,cs),
(442.333,901,o),
(382.5,861.667,o),
(344.5,795,cs),
(306.5,728.333,o),
(291,633.333,o),
(291,520,cs),
(291,405.333,o),
(309.333,308.5,o),
(348,242.5,cs),
(386.667,176.5,o),
(444.333,141.333,o),
(527,140,cs)
);
}
);
userData = {
org.robofab.postScriptHintData = {
};
};
vertWidth = 0;
width = 1129;
}
);
unicode = 103;
},
{
glyphname = h;
layers = (
{
layerId = "C1664359-F853-4045-A63D-7A2F9FE31172";
shapes = (
{
closed = 1;
nodes = (
(343,1437,l),
(343,925,l),
(451.361,1009.575,o),
(551.043,1043,o),
(688,1043,cs),
(918.425,1043,o),
(1011,916.074,o),
(1011,576,cs),
(1011,0,l),
(826,0,l),
(826,562,ls),
(826,832.175,o),
(761.797,902,o),
(641,902,cs),
(516.55,902,o),
(393.7,811.9,o),
(343,795,c),
(343,0,l),
(158,0,l),
(158,1419,l),
(158,1419,l)
);
}
);
userData = {
org.robofab.postScriptHintData = {
};
};
vertWidth = 0;
width = 1160;
}
);
unicode = 104;
},
{
glyphname = i;
kernLeft = i;
kernRight = i;
layers = (
{
layerId = "C1664359-F853-4045-A63D-7A2F9FE31172";
shapes = (
{
closed = 1;
nodes = (
(156,1025,l),
(340,1025,l),
(340,0,l),
(156,0,l),
(156,0,l)
);
},
{
closed = 1;
nodes = (
(344,1226,l),
(151,1226,l),
(151,1408,l),
(344,1408,l),
(344,1408,l)
);
}
);
userData = {
org.robofab.postScriptHintData = {
};
};
vertWidth = 0;
width = 495;
}
);
unicode = 105;
},
{
glyphname = idotless;
layers = (
{
layerId = "C1664359-F853-4045-A63D-7A2F9FE31172";
shapes = (
{
closed = 1;
nodes = (
(158,1021,l),
(334,1021,l),
(334,0,l),
(158,0,l),
(158,0,l)
);
}
);
userData = {
org.robofab.postScriptHintData = {
};
};
vertWidth = 0;
width = 492;
}
);
unicode = 305;
},
{
glyphname = j;
layers = (
{
layerId = "C1664359-F853-4045-A63D-7A2F9FE31172";
shapes = (
{
closed = 1;
nodes = (
(341,133,ls),
(341,25,o),
(319.333,-64.167,o),
(266,-139.5,cs),
(212.667,-214.833,o),
(127.667,-276.667,o),
(1,-326,c),
(-54,-203,l),
(102.354,-115.548,o),
(158,-41.558,o),
(158,152,cs),
(158,1025,l),
(341,1025,l),
(341,1025,l)
);
},
{
closed = 1;
nodes = (
(345,1226,l),
(153,1226,l),
(153,1408,l),
(345,1408,l),
(345,1408,l)
);
}
);
userData = {
org.robofab.postScriptHintData = {
};
};
vertWidth = 0;
width = 496;
}
);
unicode = 106;
},
{
glyphname = k;
layers = (
{
layerId = "C1664359-F853-4045-A63D-7A2F9FE31172";
shapes = (
{
closed = 1;
nodes = (
(841,0,l),
(433,468,l),
(343,385,l),
(343,0,l),
(158,0,l),
(158,1419,l),
(343,1437,l),
(343,564,l),
(812,1025,l),
(1007,1025,l),
(1007,986,l),
(565,559,l),
(1031,35,l),
(1031,0,l),
(1031,0,l)
);
}
);
userData = {
org.robofab.postScriptHintData = {
};
};
vertWidth = 0;
width = 1047;
}
);
unicode = 107;
},
{
glyphname = l;
layers = (
{
layerId = "C1664359-F853-4045-A63D-7A2F9FE31172";
shapes = (
{
closed = 1;
nodes = (
(342,1437,l),
(342,0,l),
(158,0,l),
(158,1419,l),
(158,1419,l)
);
}
);
userData = {
org.robofab.postScriptHintData = {
};
};
vertWidth = 0;
width = 500;
}
);
unicode = 108;
},
{
glyphname = lslash;
layers = (
{
layerId = "C1664359-F853-4045-A63D-7A2F9FE31172";
shapes = (
{
closed = 1;
nodes = (
(37,605,l),
(37,750,l),
(261,858,l),
(261,1470,l),
(445,1496,l),
(445,949,l),
(664,1055,l),
(664,911,l),
(445,805,l),
(445,0,l),
(261,0,l),
(261,713,l),
(261,713,l)
);
}
);
userData = {
org.robofab.postScriptHintData = {
};
};
vertWidth = 0;
width = 683;
}
);
unicode = 322;
},
{
glyphname = m;
layers = (
{
layerId = "C1664359-F853-4045-A63D-7A2F9FE31172";
shapes = (
{
closed = 1;
nodes = (
(1455.333,1043,o),
(1542,911.333,o),
(1542,642,cs),
(1542,0,l),
(1356,0,l),
(1356,562,ls),
(1356,684.667,o),
(1347.5,769.5,o),
(1325.5,823.5,cs),
(1303.5,877.5,o),
(1267,901,o),
(1211,901,cs),
(1122.271,901,o),
(971.098,844.098,o),
(935,808,c),
(937,794,o),
(939.333,776,o),
(942,754,cs),
(946,715.333,o),
(950,657,o),
(950,573,cs),
(950,0,l),
(764,0,l),
(764,597,ls),
(764,718.333,o),
(756,794.5,o),
(736,840.5,cs),
(716,886.5,o),
(682.667,901,o),
(632,901,cs),
(514.919,901,o),
(410.387,846.088,o),
(343,808,c),
(343,0,l),
(158,0,l),
(158,1025,l),
(287,1037,l),
(314,922,l),
(420.667,1000.667,o),
(535.667,1043,o),
(669,1043,cs),
(802.333,1043,o),
(876.333,997.667,o),
(907,919,c),
(993.431,991.49,o),
(1101.005,1043,o),
(1266,1043,cs)
);
}
);
userData = {
org.robofab.postScriptHintData = {
};
};
vertWidth = 0;
width = 1691;
}
);
unicode = 109;
},
{
glyphname = n;
kernLeft = n;
kernRight = n;
layers = (
{
layerId = "C1664359-F853-4045-A63D-7A2F9FE31172";
shapes = (
{
closed = 1;
nodes = (
(287,1037,l),
(314,922,l),
(346,946,o),
(393.833,977,o),
(454.5,1001,cs),
(515.167,1025,o),
(590,1043,o),
(674,1043,cs),
(779.333,1043,o),
(861.667,1014.5,o),
(919,948.5,cs),
(976.333,882.5,o),
(1007,777.333,o),
(1007,624,cs),
(1007,0,l),
(822,0,l),
(822,584,ls),
(822,693.333,o),
(811,773,o),
(783,825,cs),
(755,877,o),
(708.667,901,o),
(638,901,cs),
(563.333,901,o),
(491,876.667,o),
(435,854,cs),
(403,840.667,o),
(372.333,825.333,o),
(343,808,c),
(343,0,l),
(158,0,l),
(158,1025,l),
(158,1025,l)
);
}
);
userData = {
org.robofab.postScriptHintData = {
};
};
vertWidth = 0;
width = 1156;
}
);
unicode = 110;
},
{
glyphname = o;
kernLeft = o;
kernRight = o;
layers = (
{
layerId = "C1664359-F853-4045-A63D-7A2F9FE31172";
shapes = (
{
closed = 1;
nodes = (
(866.513,1043,o),
(1013,834.398,o),
(1013,510,cs),
(1013,197.163,o),
(868.114,-18,o),
(560,-18,cs),
(250.55,-18,o),
(106,197.551,o),
(106,510,cs),
(106,834.018,o),
(251.779,1043,o),
(560,1043,cs)
);
},
{
closed = 1;
nodes = (
(660,122,o),
(726.5,160.667,o),
(768.5,230,cs),
(810.5,299.333,o),
(827,398.667,o),
(827,512,cs),
(827,758.039,o),
(758.339,901,o),
(560,901,cs),
(460,901,o),
(393.5,865.5,o),
(351.5,799.5,cs),
(309.5,733.5,o),
(293,637.333,o),
(293,512,cs),
(293,398.667,o),
(309.5,299.333,o),
(351.5,230,cs),
(393.5,160.667,o),
(460,122,o),
(560,122,cs)
);
}
);
userData = {
org.robofab.postScriptHintData = {
};
};
vertWidth = 0;
width = 1119;
}
);
unicode = 111;
},
{
glyphname = oslash;
kernLeft = o;
layers = (
{
layerId = "C1664359-F853-4045-A63D-7A2F9FE31172";
shapes = (
{
closed = 1;
nodes = (
(628,1035,o),
(689,1024,o),
(741,1000,c),
(841,1226,l),
(923,1183,l),
(915.553,1168.106,o),
(876.33,1085.913,o),
(820,960,c),
(950.667,869.333,o),
(1013,704,o),
(1013,504,cs),
(1013,201.456,o),
(868.248,-28,o),
(560,-28,cs),
(496,-28,o),
(441.333,-17.333,o),
(392,0,c),
(370.667,-50,o),
(352.333,-92.333,o),
(337,-127,cs),
(321.667,-161.667,o),
(311.333,-185,o),
(306,-197,c),
(221,-157,l),
(311,38,l),
(172.953,128.261,o),
(106,299.745,o),
(106,504,cs),
(106,811.875,o),
(253.176,1035,o),
(560,1035,cs)
);
},
{
closed = 1;
nodes = (
(293,375.333,o),
(319,262.667,o),
(383,192,c),
(682,868,l),
(647.333,886.667,o),
(608,896,o),
(560,896,cs),
(460,896,o),
(393.5,856.333,o),
(351.5,787,cs),
(309.5,717.667,o),
(293,620.667,o),
(293,506,cs)
);
},
{
closed = 1;
nodes = (
(759.962,109,o),
(827,284.877,o),
(827,506,cs),
(827,631.333,o),
(802.333,735,o),
(745,803,c),
(449,131,l),
(480.333,116.333,o),
(517.333,109,o),
(560,109,cs)
);
}
);
userData = {
org.robofab.postScriptHintData = {
};
};
vertWidth = 0;
width = 1119;
}
);
unicode = 248;
},
{
glyphname = p;
layers = (
{
layerId = "C1664359-F853-4045-A63D-7A2F9FE31172";
shapes = (
{
closed = 1;
nodes = (
(311,927,l),
(403.815,994.502,o),
(503.668,1043,o),
(666,1043,cs),
(780.667,1043,o),
(871.333,1001.5,o),
(934,915.5,cs),
(996.667,829.5,o),
(1030,696.667,o),
(1030,514,cs),
(1030,135.859,o),
(864.896,-18,o),
(655,-18,cs),
(563,-18,o),
(486,3.333,o),
(430,26,cs),
(398,38.667,o),
(369,53.667,o),
(343,71,c),
(343,-399,l),
(158,-415,l),
(158,1025,l),
(278,1036,l),
(278,1036,l)
);
},
{
closed = 1;
nodes = (
(366.333,184,o),
(391.667,171.333,o),
(419,160,cs),
(465.667,141.333,o),
(531.333,122,o),
(606,122,cs),
(761.135,122,o),
(844,228.233,o),
(844,524,cs),
(844,788,o),
(772.333,901,o),
(631,901,cs),
(551,901,o),
(480,879.333,o),
(428,858,cs),
(397.333,846,o),
(369,832,o),
(343,816,c),
(343,198,l),
(343,198,l)
);
}
);
userData = {
org.robofab.postScriptHintData = {
};
};
vertWidth = 0;
width = 1136;
}
);
unicode = 112;
},
{
glyphname = thorn;
layers = (
{
layerId = "C1664359-F853-4045-A63D-7A2F9FE31172";
shapes = (
{
closed = 1;
nodes = (
(158,1473,l),
(343,1499,l),
(343,958,l),
(367,974,o),
(394.333,988.333,o),
(425,1001,cs),
(477,1023.667,o),
(549,1045,o),
(637,1045,cs),
(848.236,1045,o),
(1028,887.314,o),
(1028,507,cs),
(1028,312.333,o),
(975.5,180.667,o),
(897.5,98,cs),
(819.5,15.333,o),
(717.333,-18,o),
(616,-18,cs),
(525.333,-18,o),
(457.667,10.333,o),
(411,41,cs),
(384.333,58.333,o),
(361,78.333,o),
(341,101,c),
(341,-349,l),
(158,-340,l),
(158,-340,l)
);
},
{
closed = 1;
nodes = (
(363,199,o),
(385.667,183,o),
(411,169,cs),
(453.667,145,o),
(515.667,122,o),
(589,122,cs),
(727.301,122,o),
(843,226.486,o),
(843,503,cs),
(843,757.667,o),
(763.667,903,o),
(601,903,cs),
(527.667,903,o),
(464.667,883,o),
(418,863,cs),
(391.333,851,o),
(366.333,838,o),
(343,824,c),
(343,217,l),
(343,217,l)
);
}
);
userData = {
org.robofab.postScriptHintData = {
};
};
vertWidth = 0;
width = 1134;
}
);
unicode = 254;
},
{
glyphname = q;
kernLeft = o;
layers = (
{
layerId = "C1664359-F853-4045-A63D-7A2F9FE31172";
shapes = (
{
closed = 1;
nodes = (
(767,-417,l),
(767,71,l),
(741,53.667,o),
(712,38.667,o),
(680,26,cs),
(625.333,3.333,o),
(551.333,-18,o),
(466,-18,cs),
(358,-18,o),
(267.667,29.333,o),
(205,120,cs),
(142.333,210.667,o),
(106,343.667,o),
(106,509,cs),
(106,860.367,o),
(250.333,1043,o),
(497,1043,cs),
(590.326,1043,o),
(701.394,1031.567,o),
(796,1011,cs),
(857.333,997.667,o),
(904.333,987,o),
(931,979,cs),
(952,974,l),
(952,-390,l),
(952,-390,l)
);
},
{
closed = 1;
nodes = (
(464.333,901,o),
(401.833,879.833,o),
(358.5,820.5,cs),
(315.167,761.167,o),
(290,665.333,o),
(290,512,cs),
(290,250.667,o),
(365.667,122,o),
(527,122,cs),
(587,122,o),
(645.667,140.333,o),
(691,159,cs),
(717.667,169.667,o),
(743,182,o),
(767,196,c),
(767,875,l),
(740.333,880.333,o),
(713.667,885,o),
(687,889,cs),
(640.333,895.667,o),
(585.667,901,o),
(539,901,cs)
);
}
);
userData = {
org.robofab.postScriptHintData = {
};
};
vertWidth = 0;
width = 1107;
}
);
unicode = 113;
},
{
glyphname = r;
kernLeft = r;
kernRight = r;
layers = (
{
layerId = "C1664359-F853-4045-A63D-7A2F9FE31172";
shapes = (
{
closed = 1;
nodes = (
(624.667,1043,o),
(651,1037.333,o),
(671,1032,cs),
(683,1028.667,o),
(694,1025,o),
(704,1021,c),
(682,878,l),
(679.333,880,o),
(674.667,882.333,o),
(668,885,cs),
(657.333,887.667,o),
(638,892,o),
(606,892,cs),
(530,892,o),
(464.667,867.667,o),
(418,845,cs),
(390.667,831.667,o),
(365.667,816.333,o),
(343,799,c),
(343,0,l),
(158,0,l),
(158,1025,l),
(287,1035,l),
(322,917,l),
(399.333,997,o),
(496.667,1043,o),
(598,1043,cs)
);
}
);
userData = {
org.robofab.postScriptHintData = {
};
};
vertWidth = 0;
width = 736;
}
);
unicode = 114;
},
{
glyphname = s;
kernLeft = s;
kernRight = s;
layers = (
{
layerId = "C1664359-F853-4045-A63D-7A2F9FE31172";
shapes = (
{
closed = 1;
nodes = (
(102,979,o),
(295,1043,o),
(489,1043,cs),
(585,1043,o),
(682,1026,o),
(753,1001,c),
(773,854,l),
(726,868,o),
(601,899,o),
(490,899,cs),
(370,899,o),
(273,883,o),
(273,773,cs),
(273,684,o),
(313,660,o),
(519,607,cs),
(752,547,o),
(839,464,o),
(839,282,cs),
(839,67,o),
(655,-19,o),
(444,-19,cs),
(340,-19,o),
(231,2,o),
(132,38,c),
(113,189,l),
(154,172,o),
(302,126,o),
(433,126,cs),
(558,126,o),
(665,155,o),
(665,285,cs),
(665,379,o),
(615,413,o),
(410,465,cs),
(211,515,o),
(102,583,o),
(102,777,cs)
);
}
);
userData = {
org.robofab.postScriptHintData = {
};
};
vertWidth = 0;
width = 925;
}
);
unicode = 115;
},
{
glyphname = germandbls;
layers = (
{
layerId = "C1664359-F853-4045-A63D-7A2F9FE31172";
shapes = (
{
closed = 1;
nodes = (
(404.221,1402,o),
(372,1284.549,o),
(372,1112,cs),
(372,-4,l),
(185,-4,l),
(185,1110,ls),
(185,1404.667,o),
(312.333,1549,o),
(571,1549,cs),
(693.667,1549,o),
(777.833,1526.833,o),
(834.5,1491.5,cs),
(862.833,1473.833,o),
(884.833,1452.833,o),
(900.5,1428.5,cs),
(949.218,1352.832,o),
(945.457,1262.334,o),
(927,1168,c),
(927,1142.27,o),
(896.565,1063.381,o),
(870,989,cs),
(853.333,945,o),
(834.667,896.667,o),
(814,844,c),
(928.667,836,o),
(1038,785.5,o),
(1118,699.5,cs),
(1198,613.5,o),
(1250,491,o),
(1250,339,cs),
(1250,15.22,o),
(1068.638,-152.34,o),
(823,-147,cs),
(759,-145.667,o),
(706.333,-136.667,o),
(669,-126,cs),
(647,-120,o),
(627.667,-113.667,o),
(611,-107,c),
(591,34,l),
(607.667,26.667,o),
(626.333,20.333,o),
(647,15,cs),
(681.667,5.667,o),
(731,-3,o),
(791,-3,cs),
(990.805,-3,o),
(1058,151.733,o),
(1058,356,cs),
(1058,651.879,o),
(888.176,749.335,o),
(611,752,c),
(636.333,822,o),
(659.333,885.333,o),
(680,942,cs),
(725.682,1068.504,o),
(750,1139.721,o),
(750,1153,c),
(785.15,1282.785,o),
(775.202,1402,o),
(571,1402,cs)
);
}
);
userData = {
org.robofab.postScriptHintData = {
};
};
vertWidth = 0;
width = 1334;
}
);
unicode = 223;
},
{
glyphname = t;
kernLeft = t;
kernRight = t;
layers = (
{
layerId = "C1664359-F853-4045-A63D-7A2F9FE31172";
shapes = (
{
closed = 1;
nodes = (
(353.333,-18,o),
(291.667,2.333,o),
(253,57,cs),
(214.333,111.667,o),
(197,201,o),
(197,337,cs),
(197,921,l),
(55,921,l),
(55,1025,l),
(204,1025,l),
(230,1345,l),
(379,1374,l),
(379,1025,l),
(635,1025,l),
(635,921,l),
(382,921,l),
(382,298,ls),
(382,154.143,o),
(394.62,114,o),
(492,114,cs),
(528,114,o),
(562.333,117.667,o),
(589,123,cs),
(604.333,125.667,o),
(618.333,128.667,o),
(631,132,c),
(615,3,l),
(603,-1.667,o),
(588.333,-5.333,o),
(571,-8,cs),
(541.667,-13.333,o),
(500,-18,o),
(444,-18,cs)
);
}
);
userData = {
org.robofab.postScriptHintData = {
};
};
vertWidth = 0;
width = 679;
}
);
unicode = 116;
},
{
glyphname = u;
kernLeft = u;
kernRight = u;
layers = (
{
layerId = "C1664359-F853-4045-A63D-7A2F9FE31172";
shapes = (
{
closed = 1;
nodes = (
(864,-11,l),
(839,118,l),
(813,92.667,o),
(782,70,o),
(746,50,cs),
(684.667,15.333,o),
(597.333,-18,o),
(484,-18,cs),
(252,-18,o),
(149,124.667,o),
(149,438,cs),
(149,1025,l),
(333,1025,l),
(333,445,ls),
(333,329,o),
(344.5,247.833,o),
(374.5,196.5,cs),
(404.5,145.167,o),
(453.667,122,o),
(527,122,cs),
(611,122,o),
(682.333,145,o),
(733,169,cs),
(763,183,o),
(789.667,199,o),
(813,217,c),
(813,1025,l),
(998,1025,l),
(998,0,l),
(998,0,l)
);
}
);
userData = {
org.robofab.postScriptHintData = {
};
};
vertWidth = 0;
width = 1156;
}
);
unicode = 117;
},
{
glyphname = v;
layers = (
{
layerId = "C1664359-F853-4045-A63D-7A2F9FE31172";
shapes = (
{
closed = 1;
nodes = (
(45,1025,l),
(239,1025,l),
(482,161,l),
(732,1025,l),
(921,1025,l),
(594,0,l),
(373,0,l),
(373,0,l)
);
}
);
userData = {
org.robofab.postScriptHintData = {
};
};
vertWidth = 0;
width = 965;
}
);
unicode = 118;
},
{
glyphname = w;
layers = (
{
layerId = "C1664359-F853-4045-A63D-7A2F9FE31172";
shapes = (
{
closed = 1;
nodes = (
(321,0,l),
(64,1025,l),
(264,1025,l),
(451,93,l),
(618,1011,l),
(853,1011,l),
(1051,93,l),
(1213,1025,l),
(1414,1025,l),
(1175,0,l),
(931,0,l),
(735,877,l),
(567,0,l),
(567,0,l)
);
}
);
userData = {
org.robofab.postScriptHintData = {
};
};
vertWidth = 0;
width = 1485;
}
);
unicode = 119;
},
{
glyphname = x;
layers = (
{
layerId = "C1664359-F853-4045-A63D-7A2F9FE31172";
shapes = (
{
closed = 1;
nodes = (
(53,1025,l),
(247,1025,l),
(499,617,l),
(749,1025,l),
(945,1025,l),
(601,513,l),
(945,0,l),
(738,0,l),
(499,402,l),
(258,0,l),
(53,0,l),
(395,513,l),
(395,513,l)
);
}
);
userData = {
org.robofab.postScriptHintData = {
};
};
vertWidth = 0;
width = 997;
}
);
unicode = 120;
},
{
glyphname = y;
kernLeft = y;
kernRight = y;
layers = (
{
layerId = "C1664359-F853-4045-A63D-7A2F9FE31172";
shapes = (
{
closed = 1;
nodes = (
(738,1025,l),
(934,1025,l),
(581,-60,ls),
(502.417,-301.168,o),
(460.972,-429,o),
(311,-429,cs),
(228.333,-429,o),
(159.333,-410,o),
(110,-390,cs),
(81.333,-378.667,o),
(55.333,-365.667,o),
(32,-351,c),
(45,-225,l),
(71.667,-235.667,o),
(98.333,-244.667,o),
(125,-252,cs),
(171.667,-265.333,o),
(228.333,-278,o),
(279,-278,cs),
(340.145,-278,o),
(355.173,-228.349,o),
(375,-154,cs),
(399,-47,l),
(43,1025,l),
(242,1025,l),
(491,136,l),
(491,136,l)
);
}
);
userData = {
org.robofab.postScriptHintData = {
};
};
vertWidth = 0;
width = 979;
}
);
unicode = 121;
},
{
glyphname = z;
kernLeft = z;
kernRight = z;
layers = (
{
layerId = "C1664359-F853-4045-A63D-7A2F9FE31172";
shapes = (
{
closed = 1;
nodes = (
(273,134,l),
(461,138,l),
(799,138,l),
(799,0,l),
(84,0,l),
(84,153,l),
(616,890,l),
(378,885,l),
(101,885,l),
(101,1025,l),
(779,1025,l),
(811,882,l),
(811,882,l)
);
}
);
userData = {
org.robofab.postScriptHintData = {
};
};
vertWidth = 0;
width = 878;
}
);
unicode = 122;
},
{
glyphname = fi;
layers = (
{
layerId = "C1664359-F853-4045-A63D-7A2F9FE31172";
shapes = (
{
closed = 1;
nodes = (
(760,917,l),
(411,917,l),
(411,0,l),
(228,0,l),
(228,917,l),
(52,917,l),
(52,1021,l),
(229,1021,l),
(229,1068,ls),
(231.667,1209.333,o),
(254.5,1310.667,o),
(300.5,1376,cs),
(346.5,1441.333,o),
(417.333,1471,o),
(516,1471,cs),
(573.333,1471,o),
(620,1461.667,o),
(652,1451,cs),
(670.667,1445,o),
(687.333,1438.667,o),
(702,1432,c),
(710,1312,l),
(696,1316.667,o),
(681.333,1321,o),
(666,1325,cs),
(639.333,1331.667,o),
(603.667,1338,o),
(569,1338,cs),
(509,1338,o),
(469,1327.333,o),
(445,1294,cs),
(421,1260.667,o),
(411,1202.333,o),
(411,1109,cs),
(411,1021,l),
(944,1021,l),
(944,0,l),
(760,0,l),
(760,0,l)
);
},
{
closed = 1;
nodes = (
(947,1187,l),
(755,1187,l),
(755,1369,l),
(947,1369,l),
(947,1369,l)
);
}
);
userData = {
org.robofab.postScriptHintData = {
};
};
vertWidth = 0;
width = 1102;
}
);
unicode = 64257;
},
{
glyphname = ordfeminine;
layers = (
{
layerId = "C1664359-F853-4045-A63D-7A2F9FE31172";
shapes = (
{
closed = 1;
nodes = (
(798,375,l),
(798,297,l),
(198,297,l),
(198,375,l),
(198,375,l)
);
},
{
pos = (59,527);
ref = a;
scale = (0.7362,0.7357);
}
);
userData = {
org.robofab.postScriptHintData = {
};
};
vertWidth = 0;
width = 953;
}
);
unicode = 170;
},
{
glyphname = ordmasculine;
layers = (
{
layerId = "C1664359-F853-4045-A63D-7A2F9FE31172";
shapes = (
{
closed = 1;
nodes = (
(739,375,l),
(739,297,l),
(190,297,l),
(190,375,l),
(190,375,l)
);
},
{
pos = (53,528);
ref = o;
scale = (0.734,0.7351);
}
);
userData = {
org.robofab.postScriptHintData = {
};
};
vertWidth = 0;
width = 930;
}
);
unicode = 186;
},
{
glyphname = pi;
layers = (
{
layerId = "C1664359-F853-4045-A63D-7A2F9FE31172";
shapes = (
{
closed = 1;
nodes = (
(570,866,l),
(462,421,ls),
(427.333,285,o),
(386.833,191.667,o),
(343.5,129,cs),
(321.833,97.667,o),
(299.667,73.167,o),
(277,55.5,cs),
(206.294,0.391,o),
(138.01,-3,o),
(71,-3,c),
(66.014,19.438,o),
(40.52,119.661,o),
(36,140,c),
(100,140,o),
(150.5,154.333,o),
(192.5,201,cs),
(234.5,247.667,o),
(269.333,325.667,o),
(304,455,cs),
(331.049,558.688,o),
(371.421,706.614,o),
(413,866,c),
(219,866,l),
(225.667,908.667,o),
(234,953,o),
(242,997,c),
(1163,997,l),
(1159,975,o),
(1155.167,953,o),
(1151.5,931,cs),
(1147.833,909,o),
(1144,887.333,o),
(1140,866,c),
(970,866,l),
(956,776.667,o),
(942.167,688,o),
(928.5,600,cs),
(914.833,512,o),
(901,423.333,o),
(887,334,cs),
(875,258,o),
(872.333,203.833,o),
(883,168.5,cs),
(893.667,133.167,o),
(920.333,116,o),
(967,116,cs),
(1007,116,o),
(1043.333,123.333,o),
(1070,130,cs),
(1085.333,134,o),
(1099.333,139,o),
(1112,145,c),
(1106.667,121.667,o),
(1101.333,98.667,o),
(1096,76,cs),
(1090.667,53.333,o),
(1085.333,30,o),
(1080,6,c),
(1067.333,0.667,o),
(1053,-3.667,o),
(1037,-7,cs),
(1009,-13.667,o),
(970,-20,o),
(922,-20,cs),
(843.333,-20,o),
(782.833,4.167,o),
(747.5,59.5,cs),
(712.167,114.833,o),
(701.333,202.333,o),
(720,329,cs),
(805,866,l),
(805,866,l)
);
}
);
userData = {
org.robofab.postScriptHintData = {
};
};
vertWidth = 0;
width = 1204;
}
);
unicode = 960;
},
{
glyphname = zero;
layers = (
{
layerId = "C1664359-F853-4045-A63D-7A2F9FE31172";
shapes = (
{
closed = 1;
nodes = (
(771,123,o),
(851.5,178.167,o),
(897.5,273.5,cs),
(943.5,368.833,o),
(957,506,o),
(957,674,cs),
(957,836.667,o),
(941.833,975.833,o),
(894.5,1072.5,cs),
(847.167,1169.167,o),
(767,1227,o),
(639,1227,cs),
(511,1227,o),
(431.833,1170.167,o),
(384.5,1073.5,cs),
(337.167,976.833,o),
(323,838,o),
(323,674,cs),
(323,506,o),
(338.167,368.833,o),
(385.5,273.5,cs),
(432.833,178.167,o),
(512.333,123,o),
(639,123,cs)
);
},
{
closed = 1;
nodes = (
(133,1110.181,o),
(256.57,1369,o),
(639,1369,cs),
(1024.093,1369,o),
(1147,1110.175,o),
(1147,673,cs),
(1147,454.333,o),
(1115,278.667,o),
(1035,160,cs),
(955,41.333,o),
(828.333,-24,o),
(639,-24,cs),
(449.667,-24,o),
(323.833,41.333,o),
(244.5,160,cs),
(165.167,278.667,o),
(133,454.333,o),
(133,673,cs)
);
}
);
userData = {
org.robofab.postScriptHintData = {
};
};
vertWidth = 0;
width = 1280;
}
);
unicode = 48;
},
{
glyphname = one;
layers = (
{
layerId = "C1664359-F853-4045-A63D-7A2F9FE31172";
shapes = (
{
closed = 1;
nodes = (
(299,1158,l),
(204,1106,l),
(97,1050,l),
(39,1191,l),
(338,1336,l),
(471,1309,l),
(471,0,l),
(295,0,l),
(296,972,l),
(296,972,l)
);
}
);
userData = {
org.robofab.postScriptHintData = {
};
};
vertWidth = 0;
width = 659;
}
);
unicode = 49;
},
{
glyphname = two;
layers = (
{
layerId = "C1664359-F853-4045-A63D-7A2F9FE31172";
shapes = (
{
closed = 1;
nodes = (
(752.52,1363,o),
(871,1210.253,o),
(871,996,cs),
(871,833.804,o),
(790.716,715.459,o),
(682,585,cs),
(304,144,l),
(856,144,l),
(836,0,l),
(120,0,l),
(90,146,l),
(553,700,ls),
(620.665,781.761,o),
(691,882.773,o),
(691,993,cs),
(691,1109.43,o),
(630.398,1217,o),
(458,1217,cs),
(383.333,1217,o),
(300,1197.667,o),
(232,1179,cs),
(192.667,1166.333,o),
(154.333,1153.333,o),
(117,1140,c),
(137,1296,l),
(171.667,1308,o),
(208.333,1319,o),
(247,1329,cs),
(313.667,1346.333,o),
(400,1363,o),
(488,1363,cs)
);
}
);
userData = {
org.robofab.postScriptHintData = {
};
};
vertWidth = 0;
width = 988;
}
);
unicode = 50;
},
{
glyphname = three;
layers = (
{
layerId = "C1664359-F853-4045-A63D-7A2F9FE31172";
shapes = (
{
closed = 1;
nodes = (
(164.564,179.87,o),
(324.759,132,o),
(479,132,cs),
(632.108,132,o),
(734,204.248,o),
(734,367,cs),
(734,535.601,o),
(639.066,628,o),
(330,628,c),
(330,789,l),
(471.333,789,o),
(564.833,801.5,o),
(621.5,835.5,cs),
(678.167,869.5,o),
(700,925.667,o),
(700,1011,cs),
(700,1171.165,o),
(588.571,1221,o),
(452,1221,cs),
(326.187,1221,o),
(174.973,1184.135,o),
(115,1167,c),
(140,1320,l),
(175.405,1331.064,o),
(315.557,1370,o),
(452,1370,cs),
(720.423,1370,o),
(889,1264.624,o),
(889,1030,cs),
(889,884.524,o),
(830.287,811.962,o),
(768,761,c),
(732.667,736.333,o),
(692.667,720,o),
(648,712,c),
(702,708,o),
(750,694,o),
(792,670,cs),
(828,646,o),
(864.333,615.833,o),
(891,568.5,cs),
(917.667,521.167,o),
(936,457.333,o),
(936,376,cs),
(936,58.108,o),
(726.443,-24,o),
(476,-24,cs),
(314.823,-24,o),
(149.78,25.305,o),
(91,40,c),
(125,189,l),
(125,189,l)
);
}
);
userData = {
org.robofab.postScriptHintData = {
};
};
vertWidth = 0;
width = 1061;
}
);
unicode = 51;
},
{
glyphname = four;
layers = (
{
layerId = "C1664359-F853-4045-A63D-7A2F9FE31172";
shapes = (
{
closed = 1;
nodes = (
(836,1328,l),
(837,397,l),
(1004,397,l),
(1004,257,l),
(837,257,l),
(837,-14,l),
(662,-19,l),
(662,257,l),
(84,257,l),
(38,379,l),
(570,1335,l),
(570,1335,l)
);
},
{
closed = 1;
nodes = (
(662,839,l),
(672,1217,l),
(488,853,l),
(233,393,l),
(424,397,l),
(662,397,l),
(662,397,l)
);
}
);
userData = {
org.robofab.postScriptHintData = {
};
};
vertWidth = 0;
width = 1082;
}
);
unicode = 52;
},
{
glyphname = five;
layers = (
{
layerId = "C1664359-F853-4045-A63D-7A2F9FE31172";
shapes = (
{
closed = 1;
nodes = (
(196.333,667,o),
(193.333,669.833,o),
(188,675.5,cs),
(182.667,681.167,o),
(176.667,687.333,o),
(170,694,cs),
(143,721,l),
(163,1339,l),
(839,1339,l),
(824,1209,l),
(319,1209,l),
(301,809,l),
(321.667,813,o),
(343.667,816.667,o),
(367,820,cs),
(407,826.667,o),
(460,832,o),
(516,832,cs),
(745.825,832,o),
(920,707.525,o),
(920,425,cs),
(920,127.157,o),
(810.755,-24,o),
(457,-24,cs),
(378.333,-24,o),
(307.333,-11.667,o),
(254,3,cs),
(222.667,11,o),
(194,20.333,o),
(168,31,c),
(149,183,l),
(177,173.667,o),
(207.333,165,o),
(240,157,cs),
(296,143.667,o),
(370,132,o),
(450,132,cs),
(679.909,132,o),
(748,206.364,o),
(748,424,cs),
(748,585.578,o),
(647.73,689,o),
(482,689,cs),
(367.333,689,o),
(259.667,677.667,o),
(197,667,cs)
);
}
);
userData = {
org.robofab.postScriptHintData = {
};
};
vertWidth = 0;
width = 1028;
}
);
unicode = 53;
},
{
glyphname = six;
layers = (
{
layerId = "C1664359-F853-4045-A63D-7A2F9FE31172";
shapes = (
{
closed = 1;
nodes = (
(825,1205.667,o),
(729.667,1207,o),
(647,1195,cs),
(531,1181.667,o),
(450,1134.167,o),
(398,1053.5,cs),
(346,972.833,o),
(322.333,855.667,o),
(321,705,c),
(354.333,727.667,o),
(403.667,763,o),
(469,791,cs),
(534.333,819,o),
(614,842,o),
(706,842,cs),
(941.768,842,o),
(1110,680.362,o),
(1110,427,cs),
(1110,197.2,o),
(962.067,-24,o),
(616,-24,cs),
(458.667,-24,o),
(336.5,33.333,o),
(254.5,140,cs),
(172.5,246.667,o),
(130,402.667,o),
(130,600,cs),
(130,826.667,o),
(162.333,1001.167,o),
(241,1124.5,cs),
(319.667,1247.833,o),
(445.333,1319.667,o),
(632,1337,c),
(674,1343,o),
(718.5,1346,o),
(765.5,1346,cs),
(812.5,1346,o),
(863.333,1343.333,o),
(918,1338,c),
(941,1191,l),
(941,1191,l)
);
},
{
closed = 1;
nodes = (
(570.333,692,o),
(485.667,662.667,o),
(423,636,cs),
(386.333,620,o),
(353,602,o),
(323,582,c),
(323,572.127,o),
(322,566.943,o),
(322,529,cs),
(320.667,269,o),
(424.667,120,o),
(626,120,cs),
(823.333,120,o),
(929,217.333,o),
(929,424,cs),
(929,588.351,o),
(850.787,692,o),
(669,692,cs)
);
}
);
userData = {
org.robofab.postScriptHintData = {
};
};
vertWidth = 0;
width = 1196;
}
);
unicode = 54;
},
{
glyphname = seven;
layers = (
{
layerId = "C1664359-F853-4045-A63D-7A2F9FE31172";
shapes = (
{
closed = 1;
nodes = (
(528,817,l),
(678,1174,l),
(370,1171,l),
(59,1171,l),
(69,1317,l),
(826,1317,l),
(867,1177,l),
(365,-24,l),
(205,48,l),
(205,48,l)
);
}
);
userData = {
org.robofab.postScriptHintData = {
};
};
vertWidth = 0;
width = 917;
}
);
unicode = 55;
},
{
glyphname = eight;
layers = (
{
layerId = "C1664359-F853-4045-A63D-7A2F9FE31172";
shapes = (
{
closed = 1;
nodes = (
(123,475.019,o),
(169.765,569.125,o),
(234,623,cs),
(301.619,679.713,o),
(355.767,696.33,o),
(412,711,c),
(285.898,741.882,o),
(170,841.705,o),
(170,1013,cs),
(170,1111.667,o),
(201.333,1198.833,o),
(268,1263.5,cs),
(334.667,1328.167,o),
(437,1367,o),
(577,1367,cs),
(718.333,1367,o),
(822.333,1327.167,o),
(889,1262.5,cs),
(955.667,1197.833,o),
(988,1110.333,o),
(988,1013,cs),
(988,842.247,o),
(860.279,742.82,o),
(733,711,c),
(850.359,685.852,o),
(1031,600.733,o),
(1031,345,cs),
(1031,67.297,o),
(796.43,-24,o),
(577,-24,cs),
(359.894,-24,o),
(123,67.867,o),
(123,345,cs)
);
},
{
closed = 1;
nodes = (
(621,796.333,o),
(658.333,812.333,o),
(691,833,cs),
(746.564,867.397,o),
(803,929.274,o),
(803,1023,cs),
(803,1177.057,o),
(701.666,1222,o),
(579,1222,cs),
(462.084,1222,o),
(354,1176.521,o),
(354,1023,cs),
(354,929.673,o),
(408.893,867.352,o),
(466,832,cs),
(498.667,811.333,o),
(536.333,795.667,o),
(579,785,c)
);
},
{
closed = 1;
nodes = (
(314,184.054,o),
(424.202,126,o),
(577,126,cs),
(728.514,126,o),
(846,181.379,o),
(846,364,cs),
(846,477.533,o),
(778.843,553.894,o),
(712,594,cs),
(672.667,618,o),
(628,635.333,o),
(578,646,c),
(528.667,634,o),
(484.667,616,o),
(446,592,cs),
(378.247,551.348,o),
(314,472.395,o),
(314,364,cs)
);
}
);
userData = {
org.robofab.postScriptHintData = {
};
};
vertWidth = 0;
width = 1155;
}
);
unicode = 56;
},
{
glyphname = nine;
layers = (
{
layerId = "C1664359-F853-4045-A63D-7A2F9FE31172";
shapes = (
{
closed = 1;
nodes = (
(371,127.333,o),
(466.333,126.333,o),
(549,137,cs),
(665,150.333,o),
(746,197.833,o),
(798,278.5,cs),
(850,359.167,o),
(873.667,475.667,o),
(875,629,c),
(819.394,578.954,o),
(697.036,496,o),
(514,496,cs),
(277.163,496,o),
(86,645.16,o),
(86,911,cs),
(86,1028.333,o),
(123.833,1140.667,o),
(204.5,1226,cs),
(285.167,1311.333,o),
(408,1365,o),
(580,1365,cs),
(888.873,1365,o),
(1066,1143.9,o),
(1066,735,cs),
(1066,277.905,o),
(937.184,26.499,o),
(563,-8,c),
(521,-14.667,o),
(476.667,-18,o),
(430,-18,cs),
(383.333,-18,o),
(332.667,-15.333,o),
(278,-10,c),
(255,142,l),
(255,142,l)
);
},
{
closed = 1;
nodes = (
(640,642,o),
(720.333,671.333,o),
(779,698,cs),
(813,714,o),
(844.333,732.333,o),
(873,753,c),
(873,766.636,o),
(874,768.778,o),
(874,810,cs),
(874,940.667,o),
(847.667,1041.333,o),
(797,1112,cs),
(746.333,1182.667,o),
(670,1220,o),
(570,1220,cs),
(371.333,1220,o),
(267,1122.333,o),
(267,913,cs),
(267,730.848,o),
(366.658,642,o),
(548,642,cs)
);
}
);
userData = {
org.robofab.postScriptHintData = {
};
};
vertWidth = 0;
width = 1196;
}
);
unicode = 57;
},
{
glyphname = fraction;
layers = (
{
layerId = "C1664359-F853-4045-A63D-7A2F9FE31172";
shapes = (
{
closed = 1;
nodes = (
(146,13,l),
(7,67,l),
(686,1432,l),
(827,1381,l),
(827,1381,l)
);
}
);
userData = {
org.robofab.postScriptHintData = {
};
};
vertWidth = 0;
width = 832;
}
);
unicode = 8260;
},
{
glyphname = onesuperior;
layers = (
{
layerId = "C1664359-F853-4045-A63D-7A2F9FE31172";
shapes = (
{
closed = 1;
nodes = (
(289,798,l),
(203,751,l),
(98,697,l),
(43,829,l),
(326,966,l),
(448,939,l),
(448,0,l),
(289,0,l),
(289,599,l),
(289,599,l)
);
}
);
userData = {
org.robofab.postScriptHintData = {
};
};
vertWidth = 0;
width = 613;
}
);
unicode = 185;
},
{
glyphname = twosuperior;
layers = (
{
layerId = "C1664359-F853-4045-A63D-7A2F9FE31172";
shapes = (
{
closed = 1;
nodes = (
(522,988,o),
(602.5,961.5,o),
(656.5,915.5,cs),
(710.5,869.5,o),
(737,803.333,o),
(737,726,cs),
(737,611.291,o),
(672.571,522.571,o),
(584,434,cs),
(292,136,l),
(722,136,l),
(710,0,l),
(113,0,l),
(93,136,l),
(474,542,ls),
(519.084,592.72,o),
(566,657.534,o),
(566,722,cs),
(566,795.333,o),
(512.333,849,o),
(395,849,cs),
(333.667,849,o),
(264,832.667,o),
(208,818,cs),
(175.333,808.667,o),
(143.333,798.333,o),
(112,787,c),
(131,933,l),
(158.333,943,o),
(187.667,952,o),
(219,960,cs),
(272.333,974.667,o),
(342,988,o),
(414,988,cs)
);
}
);
userData = {
org.robofab.postScriptHintData = {
};
};
vertWidth = 0;
width = 843;
}
);
unicode = 178;
},
{
glyphname = threesuperior;
layers = (
{
layerId = "C1664359-F853-4045-A63D-7A2F9FE31172";
shapes = (
{
closed = 1;
nodes = (
(148,145.667,o),
(177.333,137.333,o),
(208,130,cs),
(260,116.667,o),
(328.333,105,o),
(395,105,cs),
(534.333,105,o),
(604,153.333,o),
(604,250,cs),
(604,356.037,o),
(523.782,407,o),
(277,407,c),
(277,536,l),
(506.338,536,o),
(573,580.67,o),
(573,682,cs),
(573,786,o),
(504.333,820,o),
(371,820,cs),
(270.39,820,o),
(136.521,788.227,o),
(113,783,c),
(134,910,l),
(159.333,916.667,o),
(185.667,923,o),
(213,929,cs),
(259.667,938.333,o),
(320,948,o),
(376,948,cs),
(626.667,948,o),
(732,860.333,o),
(732,699,cs),
(732,615,o),
(691.333,562.167,o),
(646,529.5,cs),
(599.33,495.87,o),
(562.282,486.534,o),
(537,476,c),
(557.736,473.926,o),
(612.49,466.809,o),
(670,436,cs),
(712.073,413.461,o),
(774,357.57,o),
(774,244,cs),
(774,48.915,o),
(600.787,-25,o),
(392,-25,cs),
(251.076,-25,o),
(134.496,18.573,o),
(91,31,c),
(120,155,l),
(120,155,l)
);
}
);
userData = {
org.robofab.postScriptHintData = {
};
};
vertWidth = 0;
width = 886;
}
);
unicode = 179;
},
{
glyphname = foursuperior;
layers = (
{
layerId = "C1664359-F853-4045-A63D-7A2F9FE31172";
shapes = (
{
closed = 1;
nodes = (
(705,956,l),
(705,335,l),
(865,335,l),
(865,215,l),
(705,215,l),
(705,0,l),
(548,-6,l),
(548,215,l),
(88,215,l),
(45,320,l),
(469,963,l),
(469,963,l)
);
},
{
closed = 1;
nodes = (
(548,613,l),
(552,853,l),
(396,601,l),
(222,332,l),
(408,335,l),
(548,335,l),
(548,335,l)
);
}
);
userData = {
org.robofab.postScriptHintData = {
};
};
vertWidth = 0;
width = 935;
}
);
unicode = 8308;
},
{
glyphname = period;
layers = (
{
layerId = "C1664359-F853-4045-A63D-7A2F9FE31172";
shapes = (
{
closed = 1;
nodes = (
(329,-9,l),
(139,-9,l),
(139,202,l),
(329,202,l),
(329,202,l)
);
}
);
userData = {
org.robofab.postScriptHintData = {
};
};
vertWidth = 0;
width = 469;
}
);
unicode = 46;
},
{
glyphname = comma;
layers = (
{
layerId = "C1664359-F853-4045-A63D-7A2F9FE31172";
shapes = (
{
closed = 1;
nodes = (
(364,216,l),
(365.333,200,o),
(367,182.667,o),
(369,164,cs),
(371.667,132,o),
(375,89.667,o),
(375,43,cs),
(375,-81.443,o),
(326.453,-170.944,o),
(174,-213,c),
(147,-133,l),
(221.667,-125,o),
(258,-70.667,o),
(258,0,c),
(138,0,l),
(138,200,l),
(138,200,l)
);
}
);
userData = {
org.robofab.postScriptHintData = {
};
};
vertWidth = 0;
width = 507;
}
);
unicode = 44;
},
{
glyphname = colon;
layers = (
{
layerId = "C1664359-F853-4045-A63D-7A2F9FE31172";
shapes = (
{
closed = 1;
nodes = (
(353,94,l),
(147,94,l),
(147,306,l),
(353,306,l),
(353,306,l)
);
},
{
closed = 1;
nodes = (
(353,591,l),
(148,591,l),
(148,805,l),
(353,805,l),
(353,805,l)
);
}
);
userData = {
org.robofab.postScriptHintData = {
};
};
vertWidth = 0;
width = 501;
}
);
unicode = 58;
},
{
glyphname = semicolon;
layers = (
{
layerId = "C1664359-F853-4045-A63D-7A2F9FE31172";
shapes = (
{
closed = 1;
nodes = (
(357,591,l),
(152,591,l),
(152,805,l),
(357,805,l),
(357,805,l)
);
},
{
closed = 1;
nodes = (
(355,195,l),
(357,181.667,o),
(359,166.667,o),
(361,150,cs),
(363.667,122,o),
(367,84.333,o),
(367,43,cs),
(367,-82.572,o),
(322.555,-170.787,o),
(188,-213,c),
(160,-133,l),
(221.333,-125,o),
(250,-70.667,o),
(250,0,c),
(152,0,l),
(152,189,l),
(152,189,l)
);
}
);
userData = {
org.robofab.postScriptHintData = {
};
};
vertWidth = 0;
width = 514;
}
);
unicode = 59;
},
{
glyphname = ellipsis;
layers = (
{
layerId = "C1664359-F853-4045-A63D-7A2F9FE31172";
shapes = (
{
closed = 1;
nodes = (
(688,-4,l),
(495,-4,l),
(495,185,l),
(688,185,l),
(688,185,l)
);
},
{
closed = 1;
nodes = (
(1053,-4,l),
(860,-4,l),
(860,185,l),
(1053,185,l),
(1053,185,l)
);
},
{
closed = 1;
nodes = (
(324,-4,l),
(134,-4,l),
(134,185,l),
(324,185,l),
(324,185,l)
);
}
);
userData = {
org.robofab.postScriptHintData = {
};
};
vertWidth = 0;
width = 1187;
}
);
unicode = 8230;
},
{
glyphname = exclam;
layers = (
{
layerId = "C1664359-F853-4045-A63D-7A2F9FE31172";
shapes = (
{
closed = 1;
nodes = (
(173,-14,l),
(173,165,l),
(348,165,l),
(348,-14,l),
(348,-14,l)
);
},
{
closed = 1;
nodes = (
(213.667,402.333,o),
(209.333,464,o),
(204,540,cs),
(194.667,669.333,o),
(181.667,871.333,o),
(163,1162,c),
(163,1187.816,o),
(159.982,1283.104,o),
(158,1404,c),
(362,1404,l),
(360.018,1283.071,o),
(357,1187.749,o),
(357,1162,c),
(338.333,871.333,o),
(325.333,669.333,o),
(316,540,cs),
(310.667,464,o),
(306.333,402.333,o),
(303,355,c),
(217,355,l),
(217,355,l)
);
}
);
userData = {
org.robofab.postScriptHintData = {
};
};
vertWidth = 0;
width = 523;
}
);
unicode = 33;
},
{
glyphname = question;
layers = (
{
layerId = "C1664359-F853-4045-A63D-7A2F9FE31172";
shapes = (
{
closed = 1;
nodes = (
(804,966.333,o),
(753.167,882.833,o),
(684.5,823.5,cs),
(650.167,793.833,o),
(613.167,769.5,o),
(573.5,750.5,cs),
(495.309,713.047,o),
(424.726,683.882,o),
(377,653,cs),
(354.333,638.333,o),
(343,620.667,o),
(343,600,cs),
(343,302,l),
(192,302,l),
(192,590,ls),
(192,732.037,o),
(302.443,786.05,o),
(414,840.5,cs),
(527.992,896.139,o),
(636,950.075,o),
(636,1090,cs),
(636,1232.164,o),
(570.525,1288,o),
(393,1288,cs),
(322.333,1288,o),
(249.333,1276.667,o),
(192,1266,cs),
(158.667,1259.333,o),
(126.667,1252,o),
(96,1244,c),
(96,1225.245,o),
(101,1305.977,o),
(101,1388,c),
(131,1396.667,o),
(162.333,1404.667,o),
(195,1412,cs),
(251,1424,o),
(323.333,1437,o),
(394,1437,cs),
(707.333,1437,o),
(804,1279.667,o),
(804,1093,cs)
);
},
{
closed = 1;
nodes = (
(173,140.389,o),
(218.715,191,o),
(274,191,cs),
(334.023,191,o),
(379,137.94,o),
(379,78,cs),
(379,19.793,o),
(332.051,-28,o),
(274,-28,cs),
(219.094,-28,o),
(173,19.611,o),
(173,78,cs)
);
}
);
userData = {
org.robofab.postScriptHintData = {
};
};
vertWidth = 0;
width = 872;
}
);
unicode = 63;
},
{
glyphname = periodcentered;
layers = (
{
layerId = "C1664359-F853-4045-A63D-7A2F9FE31172";
shapes = (
{
closed = 1;
nodes = (
(321,477,l),
(148,477,l),
(148,672,l),
(321,672,l),
(321,672,l)
);
}
);
userData = {
org.robofab.postScriptHintData = {
};
};
vertWidth = 0;
width = 469;
}
);
unicode = 183;
},
{
glyphname = bullet;
layers = (
{
layerId = "C1664359-F853-4045-A63D-7A2F9FE31172";
shapes = (
{
closed = 1;
nodes = (
(811,377.533,o),
(626.43,264,o),
(464,264,cs),
(250.29,264,o),
(116,424.033,o),
(116,605,cs),
(116,797.157,o),
(264.224,949,o),
(464,949,cs),
(665.054,949,o),
(811,791.014,o),
(811,607,cs)
);
}
);
userData = {
org.robofab.postScriptHintData = {
};
};
vertWidth = 0;
width = 926;
}
);
unicode = 8226;
},
{
glyphname = asterisk;
layers = (
{
layerId = "C1664359-F853-4045-A63D-7A2F9FE31172";
shapes = (
{
closed = 1;
nodes = (
(212,777,l),
(357,1017,l),
(94,1008,l),
(94,1118,l),
(359,1110,l),
(225,1348,l),
(322,1403,l),
(438,1163,l),
(569,1409,l),
(666,1351,l),
(516,1109,l),
(782,1118,l),
(782,1008,l),
(519,1017,l),
(655,776,l),
(551,719,l),
(438,964,l),
(309,722,l),
(309,722,l)
);
}
);
userData = {
org.robofab.postScriptHintData = {
};
};
vertWidth = 0;
width = 875;
}
);
unicode = 42;
},
{
glyphname = numbersign;
layers = (
{
layerId = "C1664359-F853-4045-A63D-7A2F9FE31172";
shapes = (
{
closed = 1;
nodes = (
(395,103,l),
(245,103,l),
(278,430,l),
(88,430,l),
(98,559,l),
(290,559,l),
(334,992,l),
(139,992,l),
(153,1119,l),
(348,1119,l),
(382,1462,l),
(533,1462,l),
(498,1119,l),
(809,1119,l),
(841,1460,l),
(993,1460,l),
(960,1119,l),
(1139,1119,l),
(1124,992,l),
(945,992,l),
(901,559,l),
(1092,559,l),
(1082,430,l),
(888,430,l),
(856,102,l),
(703,102,l),
(739,430,l),
(429,430,l),
(429,430,l)
);
},
{
closed = 1;
nodes = (
(792,992,l),
(486,992,l),
(443,559,l),
(749,559,l),
(749,559,l)
);
}
);
userData = {
org.robofab.postScriptHintData = {
};
};
vertWidth = 0;
width = 1226;
}
);
unicode = 35;
},
{
glyphname = slash;
layers = (
{
layerId = "C1664359-F853-4045-A63D-7A2F9FE31172";
shapes = (
{
closed = 1;
nodes = (
(247,-202,l),
(79,-164,l),
(448,1490,l),
(621,1451,l),
(621,1451,l)
);
}
);
userData = {
org.robofab.postScriptHintData = {
};
};
vertWidth = 0;
width = 698;
}
);
unicode = 47;
},
{
glyphname = backslash;
layers = (
{
layerId = "C1664359-F853-4045-A63D-7A2F9FE31172";
shapes = (
{
closed = 1;
nodes = (
(620,-179,l),
(461,-220,l),
(78,1492,l),
(238,1533,l),
(238,1533,l)
);
}
);
userData = {
org.robofab.postScriptHintData = {
};
};
vertWidth = 0;
width = 698;
}
);
unicode = 92;
},
{
glyphname = hyphen;
layers = (
{
layerId = "C1664359-F853-4045-A63D-7A2F9FE31172";
shapes = (
{
closed = 1;
nodes = (
(146,578,l),
(659,578,l),
(659,448,l),
(146,448,l),
(146,448,l)
);
}
);
userData = {
org.robofab.postScriptHintData = {
};
};
vertWidth = 0;
width = 805;
}
);
unicode = 45;
},
{
glyphname = endash;
layers = (
{
layerId = "C1664359-F853-4045-A63D-7A2F9FE31172";
shapes = (
{
closed = 1;
nodes = (
(135,903,l),
(909,903,l),
(909,758,l),
(135,758,l),
(135,758,l)
);
}
);
userData = {
org.robofab.postScriptHintData = {
};
};
vertWidth = 0;
width = 1046;
}
);
unicode = 8211;
},
{
glyphname = emdash;
layers = (
{
layerId = "C1664359-F853-4045-A63D-7A2F9FE31172";
shapes = (
{
closed = 1;
nodes = (
(134,844,l),
(1100,844,l),
(1100,704,l),
(134,704,l),
(134,704,l)
);
}
);
userData = {
org.robofab.postScriptHintData = {
};
};
vertWidth = 0;
width = 1235;
}
);
unicode = 8212;
},
{
glyphname = underscore;
layers = (
{
layerId = "C1664359-F853-4045-A63D-7A2F9FE31172";
shapes = (
{
closed = 1;
nodes = (
(121,149,l),
(1035,149,l),
(1035,-1,l),
(121,-1,l),
(121,-1,l)
);
}
);
userData = {
org.robofab.postScriptHintData = {
};
};
vertWidth = 0;
width = 1156;
}
);
unicode = 95;
},
{
glyphname = parenleft;
layers = (
{
layerId = "C1664359-F853-4045-A63D-7A2F9FE31172";
shapes = (
{
closed = 1;
nodes = (
(107,765.667,o),
(128.833,889.333,o),
(161.5,992,cs),
(194.167,1094.667,o),
(237,1177,o),
(281,1241,cs),
(332.333,1316.333,o),
(390.667,1377,o),
(456,1423,c),
(541,1326,l),
(493,1283.333,o),
(450.333,1228.667,o),
(413,1162,cs),
(381,1104.667,o),
(348.833,1032.667,o),
(325.5,942,cs),
(302.167,851.333,o),
(286,743.667,o),
(286,617,cs),
(286,490.333,o),
(302.167,382.5,o),
(325.5,292.5,cs),
(348.833,202.5,o),
(381,129,o),
(413,73,cs),
(450.333,7,o),
(493,-47.333,o),
(541,-90,c),
(456,-186,l),
(390.667,-140,o),
(332.333,-79.333,o),
(281,-4,cs),
(237,60,o),
(194.167,142.333,o),
(161.5,245,cs),
(128.833,347.667,o),
(107,472.333,o),
(107,619,cs)
);
}
);
userData = {
org.robofab.postScriptHintData = {
};
};
vertWidth = 0;
width = 598;
}
);
unicode = 40;
},
{
glyphname = parenright;
layers = (
{
layerId = "C1664359-F853-4045-A63D-7A2F9FE31172";
shapes = (
{
closed = 1;
nodes = (
(489,472.333,o),
(467.167,347.667,o),
(434.5,245,cs),
(401.833,142.333,o),
(359,60,o),
(315,-4,cs),
(263.667,-79.333,o),
(205.667,-140,o),
(141,-186,c),
(55,-90,l),
(103,-47.333,o),
(145.667,7,o),
(183,73,cs),
(248.218,187.132,o),
(311,368.582,o),
(311,617,cs),
(311,875.269,o),
(245.555,1049.922,o),
(183,1162,cs),
(145.667,1228.667,o),
(103,1283.333,o),
(55,1326,c),
(141,1423,l),
(205.667,1377,o),
(263.667,1316.333,o),
(315,1241,cs),
(359,1177,o),
(401.833,1094.667,o),
(434.5,992,cs),
(467.167,889.333,o),
(489,765.667,o),
(489,619,cs)
);
}
);
userData = {
org.robofab.postScriptHintData = {
};
};
vertWidth = 0;
width = 596;
}
);
unicode = 41;
},
{
glyphname = braceleft;
layers = (
{
layerId = "C1664359-F853-4045-A63D-7A2F9FE31172";
shapes = (
{
closed = 1;
nodes = (
(199,752,l),
(199,937.333,o),
(207.833,1071.667,o),
(228.5,1169,cs),
(238.833,1217.667,o),
(252.333,1257.667,o),
(269,1289,cs),
(302.333,1351.667,o),
(350.833,1386.5,o),
(415.5,1400.5,cs),
(447.833,1407.5,o),
(484.667,1411.333,o),
(526,1412,c),
(526,1322,l),
(448.717,1322,o),
(413.603,1296.105,o),
(396,1212,cs),
(384,1154.667,o),
(378.167,1065.333,o),
(377.5,936,cs),
(377.167,871.333,o),
(377,795.333,o),
(377,708,c),
(211,605,l),
(377,497,l),
(377,322.333,o),
(376.5,195.667,o),
(382.5,105,cs),
(385.5,59.667,o),
(390,22.667,o),
(396,-6,cs),
(413.603,-90.105,o),
(448.717,-116,o),
(526,-116,c),
(526,-206,l),
(443.333,-204.667,o),
(379.167,-193,o),
(330.5,-157,cs),
(306.167,-139,o),
(285.667,-114.333,o),
(269,-83,cs),
(235.667,-20.333,o),
(215.333,75.833,o),
(206,212.5,cs),
(201.333,280.833,o),
(199,361.333,o),
(199,454,c),
(74,550,l),
(74,657,l),
(74,657,l)
);
}
);
userData = {
org.robofab.postScriptHintData = {
};
};
vertWidth = 0;
width = 608;
}
);
unicode = 123;
},
{
glyphname = braceright;
layers = (
{
layerId = "C1664359-F853-4045-A63D-7A2F9FE31172";
shapes = (
{
closed = 1;
nodes = (
(409,454,l),
(409,268.667,o),
(400.167,134.333,o),
(379.5,37,cs),
(369.167,-11.667,o),
(355.667,-51.667,o),
(339,-83,cs),
(305.667,-145.667,o),
(257.167,-180.5,o),
(192.5,-194.5,cs),
(160.167,-201.5,o),
(123.333,-205.333,o),
(82,-206,c),
(82,-116,l),
(158.94,-116,o),
(194.896,-89.996,o),
(211.5,-6,cs),
(222.833,51.333,o),
(228.833,140.833,o),
(229.5,269.5,cs),
(229.833,333.833,o),
(230,409.667,o),
(230,497,c),
(397,605,l),
(230,708,l),
(230,882.667,o),
(230.5,1010.333,o),
(224.5,1101,cs),
(221.5,1146.333,o),
(217.167,1183.333,o),
(211.5,1212,cs),
(194.896,1295.996,o),
(158.94,1322,o),
(82,1322,c),
(82,1412,l),
(164.667,1410.667,o),
(228.833,1399,o),
(277.5,1363,cs),
(301.833,1345,o),
(322.333,1320.333,o),
(339,1289,cs),
(372.333,1226.333,o),
(392.667,1130.167,o),
(402,993.5,cs),
(406.667,925.167,o),
(409,844.667,o),
(409,752,c),
(535,657,l),
(535,550,l),
(535,550,l)
);
}
);
userData = {
org.robofab.postScriptHintData = {
};
};
vertWidth = 0;
width = 608;
}
);
unicode = 125;
},
{
glyphname = bracketleft;
layers = (
{
layerId = "C1664359-F853-4045-A63D-7A2F9FE31172";
shapes = (
{
closed = 1;
nodes = (
(172,1437,l),
(578,1437,l),
(578,1319,l),
(341,1319,l),
(347,966,l),
(347,337,l),
(341,-102,l),
(578,-102,l),
(578,-218,l),
(172,-218,l),
(172,-218,l)
);
}
);
userData = {
org.robofab.postScriptHintData = {
};
};
vertWidth = 0;
width = 646;
}
);
unicode = 91;
},
{
glyphname = bracketright;
layers = (
{
layerId = "C1664359-F853-4045-A63D-7A2F9FE31172";
shapes = (
{
closed = 1;
nodes = (
(69,-102,l),
(306,-102,l),
(300,337,l),
(300,966,l),
(306,1319,l),
(69,1319,l),
(69,1437,l),
(475,1437,l),
(475,-218,l),
(69,-218,l),
(69,-218,l)
);
}
);
userData = {
org.robofab.postScriptHintData = {
};
};
vertWidth = 0;
width = 646;
}
);
unicode = 93;
},
{
glyphname = mediumflattenedparenrightornament;
layers = (
{
layerId = "C1664359-F853-4045-A63D-7A2F9FE31172";
shapes = (
{
closed = 1;
nodes = (
(674,-82,l),
(674,81,l),
(136,81,l),
(136,888,l),
(467,889,l),
(467,762,l),
(304,763,l),
(304,210,l),
(674,210,l),
(674,363,l),
(1021,143,l),
(1021,143,l)
);
},
{
closed = 1;
nodes = (
(868,889,l),
(1416,889,l),
(1416,81,l),
(1083,81,l),
(1083,211,l),
(1246,210,l),
(1245,760,l),
(869,762,l),
(869,607,l),
(525,840,l),
(869,1053,l),
(869,1053,l)
);
}
);
userData = {
org.robofab.postScriptHintData = {
};
};
vertWidth = 0;
width = 1551;
}
);
unicode = 10091;
},
{
glyphname = quotesinglbase;
layers = (
{
layerId = "C1664359-F853-4045-A63D-7A2F9FE31172";
shapes = (
{
closed = 1;
nodes = (
(340,191.667,o),
(342,176.667,o),
(344,160,cs),
(346.667,132,o),
(350,93.667,o),
(350,47,cs),
(350,-110.333,o),
(287,-186,o),
(151,-198,c),
(151,-198.289,o),
(134,-174.156,o),
(134,-136,c),
(233.653,-120.265,o),
(254,-74.555,o),
(254,-3,c),
(133,-3,l),
(133,195,l),
(338,205,l),
(338,205,l)
);
}
);
userData = {
org.robofab.postScriptHintData = {
};
};
vertWidth = 0;
width = 481;
}
);
unicode = 8218;
},
{
glyphname = quotedblbase;
layers = (
{
layerId = "C1664359-F853-4045-A63D-7A2F9FE31172";
shapes = (
{
closed = 1;
nodes = (
(632.333,191.667,o),
(634,176.667,o),
(636,160,cs),
(638.667,132,o),
(641,94,o),
(641,50,cs),
(641,-100.667,o),
(583,-186,o),
(443,-198,c),
(443,-196.286,o),
(425,-176.082,o),
(425,-136,c),
(528.303,-120.107,o),
(545,-71.563,o),
(545,-3,c),
(426,-3,l),
(426,195,l),
(631,205,l),
(631,205,l)
);
},
{
closed = 1;
nodes = (
(340,191.667,o),
(342,176.667,o),
(344,160,cs),
(346.667,132,o),
(350,94,o),
(350,50,cs),
(350,-100.667,o),
(291,-186,o),
(151,-198,c),
(151,-196.286,o),
(133,-176.082,o),
(133,-136,c),
(233.921,-120.474,o),
(253,-72.764,o),
(253,-3,c),
(133,-3,l),
(133,195,l),
(338,205,l),
(338,205,l)
);
}
);
userData = {
org.robofab.postScriptHintData = {
};
};
vertWidth = 0;
width = 772;
}
);
unicode = 8222;
},
{
glyphname = quotedblleft;
layers = (
{
layerId = "C1664359-F853-4045-A63D-7A2F9FE31172";
shapes = (
{
closed = 1;
nodes = (
(484,1113,l),
(482,1129.667,o),
(480,1147.667,o),
(478,1167,cs),
(475.333,1199,o),
(473,1243.333,o),
(473,1286,cs),
(473,1430,o),
(536.333,1515.333,o),
(691,1562,c),
(717,1481,l),
(626.596,1468.085,o),
(581,1398.05,o),
(581,1334,c),
(712,1334,l),
(712,1129,l),
(712,1129,l)
);
},
{
closed = 1;
nodes = (
(133,1113,l),
(131,1129.667,o),
(129,1147.667,o),
(127,1167,cs),
(124.333,1199,o),
(121,1243.333,o),
(121,1286,cs),
(121,1430,o),
(183.333,1515.333,o),
(338,1562,c),
(366,1481,l),
(273.16,1467.737,o),
(227,1398.188,o),
(227,1334,c),
(361,1334,l),
(361,1129,l),
(361,1129,l)
);
}
);
userData = {
org.robofab.postScriptHintData = {
};
};
vertWidth = 0;
width = 824;
}
);
unicode = 8220;
},
{
glyphname = quotedblright;
layers = (
{
layerId = "C1664359-F853-4045-A63D-7A2F9FE31172";
shapes = (
{
closed = 1;
nodes = (
(698,1557,l),
(699.333,1539.667,o),
(701,1521.667,o),
(703,1503,cs),
(705.667,1471,o),
(709,1428.667,o),
(709,1386,cs),
(709,1240.667,o),
(646.667,1155.667,o),
(492,1109,c),
(465,1190,l),
(557.237,1203.177,o),
(603,1271.104,o),
(603,1337,c),
(470,1337,l),
(470,1542,l),
(470,1542,l)
);
},
{
closed = 1;
nodes = (
(345,1557,l),
(346.333,1539.667,o),
(348,1521.667,o),
(350,1503,cs),
(352.667,1471,o),
(355,1428.667,o),
(355,1386,cs),
(355,1240.667,o),
(292.667,1155.667,o),
(138,1109,c),
(111,1190,l),
(203.017,1203.145,o),
(247,1271.91,o),
(247,1337,c),
(116,1337,l),
(116,1542,l),
(116,1542,l)
);
}
);
userData = {
org.robofab.postScriptHintData = {
};
};
vertWidth = 0;
width = 792;
}
);
unicode = 8221;
},
{
glyphname = quoteleft;
layers = (
{
layerId = "C1664359-F853-4045-A63D-7A2F9FE31172";
shapes = (
{
closed = 1;
nodes = (
(131,1118,l),
(129,1135.333,o),
(127,1153.333,o),
(125,1172,cs),
(122.333,1204,o),
(119,1247.333,o),
(119,1290,cs),
(119,1434,o),
(181.333,1519.333,o),
(336,1566,c),
(364,1486,l),
(271.467,1472.781,o),
(225,1404.928,o),
(225,1339,c),
(359,1339,l),
(359,1134,l),
(359,1134,l)
);
}
);
userData = {
org.robofab.postScriptHintData = {
};
};
vertWidth = 0;
width = 471;
}
);
unicode = 8216;
},
{
glyphname = quoteright;
layers = (
{
layerId = "C1664359-F853-4045-A63D-7A2F9FE31172";
shapes = (
{
closed = 1;
nodes = (
(345,1553,l),
(347,1535.667,o),
(349,1517.667,o),
(351,1499,cs),
(353.667,1467,o),
(357,1423.667,o),
(357,1381,cs),
(357,1235.667,o),
(294.667,1150.667,o),
(140,1104,c),
(112,1185,l),
(204.72,1198.246,o),
(250,1267.293,o),
(250,1333,c),
(117,1333,l),
(117,1537,l),
(117,1537,l)
);
}
);
userData = {
org.robofab.postScriptHintData = {
};
};
vertWidth = 0;
width = 441;
}
);
unicode = 8217;
},
{
glyphname = guillemetleft;
layers = (
{
layerId = "C1664359-F853-4045-A63D-7A2F9FE31172";
shapes = (
{
closed = 1;
nodes = (
(529,76,l),
(58,552,l),
(529,1026,l),
(605,914,l),
(243,552,l),
(603,189,l),
(603,189,l)
);
},
{
closed = 1;
nodes = (
(1039,900,l),
(666,552,l),
(1040,205,l),
(966,93,l),
(478,552,l),
(964,1011,l),
(964,1011,l)
);
}
);
userData = {
org.robofab.postScriptHintData = {
};
};
vertWidth = 0;
width = 1150;
}
);
unicode = 171;
},
{
glyphname = guillemetright;
layers = (
{
layerId = "C1664359-F853-4045-A63D-7A2F9FE31172";
shapes = (
{
closed = 1;
nodes = (
(620,1026,l),
(1092,552,l),
(620,76,l),
(546,189,l),
(907,552,l),
(545,914,l),
(545,914,l)
);
},
{
closed = 1;
nodes = (
(110,205,l),
(483,552,l),
(111,900,l),
(186,1011,l),
(673,552,l),
(185,93,l),
(185,93,l)
);
}
);
userData = {
org.robofab.postScriptHintData = {
};
};
vertWidth = 0;
width = 1150;
}
);
unicode = 187;
},
{
glyphname = guilsinglleft;
layers = (
{
layerId = "C1664359-F853-4045-A63D-7A2F9FE31172";
shapes = (
{
closed = 1;
nodes = (
(529,76,l),
(57,552,l),
(529,1026,l),
(604,914,l),
(242,552,l),
(603,189,l),
(603,189,l)
);
}
);
userData = {
org.robofab.postScriptHintData = {
};
};
vertWidth = 0;
width = 709;
}
);
unicode = 8249;
},
{
glyphname = guilsinglright;
layers = (
{
layerId = "C1664359-F853-4045-A63D-7A2F9FE31172";
shapes = (
{
closed = 1;
nodes = (
(181,1026,l),
(652,552,l),
(181,76,l),
(106,189,l),
(467,552,l),
(105,914,l),
(105,914,l)
);
}
);
userData = {
org.robofab.postScriptHintData = {
};
};
vertWidth = 0;
width = 710;
}
);
unicode = 8250;
},
{
glyphname = quotedbl;
layers = (
{
layerId = "C1664359-F853-4045-A63D-7A2F9FE31172";
shapes = (
{
closed = 1;
nodes = (
(273,1337.333,o),
(261,1232,o),
(249,1148,cs),
(241.667,1099.333,o),
(233.667,1052.333,o),
(225,1007,c),
(152,1007,l),
(146,1043,o),
(141,1083.333,o),
(137,1128,cs),
(129,1204,o),
(122.667,1310.667,o),
(120,1436,c),
(273,1436,l),
(273,1436,l)
);
},
{
closed = 1;
nodes = (
(497,1337.333,o),
(482.667,1232,o),
(468,1148,cs),
(459.333,1099.333,o),
(449.667,1052.333,o),
(439,1007,c),
(369,1007,l),
(362.333,1033.667,o),
(357,1096.5,o),
(353,1174.5,cs),
(349,1252.5,o),
(347,1345.333,o),
(347,1436,c),
(497,1436,l),
(497,1436,l)
);
}
);
userData = {
org.robofab.postScriptHintData = {
};
};
vertWidth = 0;
width = 606;
}
);
unicode = 34;
},
{
glyphname = quotesingle;
layers = (
{
layerId = "C1664359-F853-4045-A63D-7A2F9FE31172";
shapes = (
{
closed = 1;
nodes = (
(284,1349.333,o),
(267.333,1243.667,o),
(250,1157,cs),
(240,1106.333,o),
(228.667,1056.333,o),
(216,1007,c),
(141,1007,l),
(139,1064.333,o),
(137,1119.667,o),
(135,1173,cs),
(133.258,1232.237,o),
(129,1357.087,o),
(129,1436,c),
(284,1436,l),
(284,1436,l)
);
}
);
userData = {
org.robofab.postScriptHintData = {
};
};
vertWidth = 0;
width = 389;
}
);
unicode = 39;
},
{
glyphname = florin;
layers = (
{
layerId = "C1664359-F853-4045-A63D-7A2F9FE31172";
shapes = (
{
closed = 1;
nodes = (
(270,886,l),
(93,886,l),
(112,991,l),
(289,991,l),
(321,1169.667,o),
(362.833,1287,o),
(423.5,1359,cs),
(484.167,1431,o),
(562,1459,o),
(666,1459,cs),
(723.333,1459,o),
(767.333,1449.667,o),
(798,1439,cs),
(815.333,1433,o),
(831,1426.333,o),
(845,1419,c),
(839,1296,l),
(824.333,1300.667,o),
(808.333,1305,o),
(791,1309,cs),
(761.667,1315.667,o),
(724.667,1322,o),
(686,1322,cs),
(623.333,1322,o),
(582.667,1311.5,o),
(552,1277.5,cs),
(521.333,1243.5,o),
(502.333,1185.333,o),
(485,1092,cs),
(468,991,l),
(744,991,l),
(725,886,l),
(449,886,l),
(290,0,l),
(110,0,l),
(110,0,l)
);
}
);
userData = {
org.robofab.postScriptHintData = {
};
};
vertWidth = 0;
width = 771;
}
);
unicode = 402;
},
{
glyphname = blackSunWithRays;
layers = (
{
layerId = "C1664359-F853-4045-A63D-7A2F9FE31172";
shapes = (
{
closed = 1;
nodes = (
(1156,189,l),
(808,350,l),
(679,-10,l),
(551,348,l),
(205,182,l),
(368,528,l),
(5,655,l),
(366,783,l),
(200,1123,l),
(549,961,l),
(677,1323,l),
(806,963,l),
(1150,1130,l),
(988,783,l),
(1351,657,l),
(988,529,l),
(988,529,l)
);
},
{
closed = 1;
nodes = (
(402.559,465.922,o),
(548.142,342.349,o),
(716,361,cs),
(883.964,376.747,o),
(1003.181,525.594,o),
(984,690,cs),
(968.081,859.803,o),
(813.096,973.486,o),
(652,955,cs),
(479.512,936.424,o),
(367.885,788.838,o),
(384,625,cs)
);
}
);
userData = {
org.robofab.postScriptHintData = {
};
};
vertWidth = 0;
width = 1355;
}
);
unicode = 9728;
},
{
glyphname = at;
layers = (
{
layerId = "C1664359-F853-4045-A63D-7A2F9FE31172";
shapes = (
{
closed = 1;
nodes = (
(1031.35,896,o),
(915.527,919.342,o),
(864,917,cs),
(677.96,909.027,o),
(524.977,735.148,o),
(517,557,cs),
(506.333,381,o),
(573,299,o),
(709,299,cs),
(799.667,299,o),
(867.5,333.667,o),
(917.5,399,cs),
(967.5,464.333,o),
(997.333,561,o),
(1012,681,cs),
(1035,896,l),
(1035,896,l)
);
},
{
closed = 1;
nodes = (
(1511,541,o),
(1480.5,436.667,o),
(1434.5,362,cs),
(1411.5,324.667,o),
(1385.5,294.167,o),
(1356.5,270.5,cs),
(1265.288,196.063,o),
(1165.961,183,o),
(1109,183,cs),
(1008.472,183,o),
(999.032,254.697,o),
(1007,345,c),
(1007.667,347,o),
(1009,353.667,o),
(1011,365,cs),
(1013,376.333,o),
(1015,388.333,o),
(1017,401,cs),
(1025,449,l),
(1016,450,l),
(1004,400,o),
(984.333,355,o),
(957,315,cs),
(906.303,244.587,o),
(827.983,180,o),
(691,180,cs),
(499.268,180,o),
(384,317.625,o),
(384,533,cs),
(384,661.332,o),
(440.962,789.993,o),
(541.5,888.5,cs),
(641.035,986.024,o),
(777.961,1041.615,o),
(929,1022,cs),
(1050.821,1006.772,o),
(1111.959,994,o),
(1114,994,c),
(1160,895,l),
(1105,287,l),
(1148.476,287,o),
(1215.109,295.243,o),
(1277,355,cs),
(1315.667,392.333,o),
(1346.5,450.833,o),
(1364.5,535.5,cs),
(1373.5,577.833,o),
(1378,628.667,o),
(1378,688,cs),
(1378,1034.285,o),
(1159.037,1198,o),
(827,1198,cs),
(465.701,1198,o),
(247.991,905.151,o),
(232,572,cs),
(213.296,229.99,o),
(428.094,3,o),
(817,3,cs),
(967.667,3,o),
(1073,35.667,o),
(1141,73,cs),
(1181,93,o),
(1214,115.667,o),
(1240,141,c),
(1280.434,107.305,o),
(1296.847,74.153,o),
(1309,62,c),
(1282.333,28.667,o),
(1245.667,-0.667,o),
(1199,-26,cs),
(1159,-47.333,o),
(1108.167,-70.833,o),
(1043.5,-87.5,cs),
(978.833,-104.167,o),
(900.333,-115,o),
(807,-115,cs),
(380.322,-115,o),
(77.996,139.895,o),
(94,572,cs),
(110.025,996.671,o),
(422.118,1317,o),
(821,1317,cs),
(1214.116,1317,o),
(1511,1098.008,o),
(1511,685,cs)
);
}
);
userData = {
org.robofab.postScriptHintData = {
};
};
vertWidth = 0;
width = 1603;
}
);
unicode = 64;
},
{
glyphname = ampersand;
layers = (
{
layerId = "C1664359-F853-4045-A63D-7A2F9FE31172";
shapes = (
{
closed = 1;
nodes = (
(1112,164,l),
(1008,37.333,o),
(845.333,-24,o),
(600,-24,cs),
(409.333,-24,o),
(282.667,19.667,o),
(204,89,cs),
(125.333,158.333,o),
(94,254.333,o),
(94,353,cs),
(94,439.667,o),
(123.333,525.667,o),
(178,599,cs),
(232.667,672.333,o),
(322,740.667,o),
(422,790,c),
(363.333,843.333,o),
(302.5,898,o),
(264.5,958,cs),
(226.5,1018,o),
(203,1084.333,o),
(203,1163,cs),
(203,1259,o),
(234,1325.333,o),
(298,1380,cs),
(362,1434.667,o),
(458,1464,o),
(590,1464,cs),
(722,1464,o),
(813.5,1432.333,o),
(871.5,1379,cs),
(929.5,1325.667,o),
(955,1262.667,o),
(955,1176,cs),
(955,989.784,o),
(829.971,871.065,o),
(643,770,c),
(1080,371,l),
(1106.667,435,o),
(1121.667,528.833,o),
(1131,617.5,cs),
(1140.333,706.167,o),
(1145,802.667,o),
(1149,912,c),
(1295,923,l),
(1295,657.667,o),
(1269,445.667,o),
(1193,287,c),
(1418,85,l),
(1318,-20,l),
(1318,-20,l)
);
},
{
closed = 1;
nodes = (
(804.333,123,o),
(927,172.333,o),
(1003,259,c),
(514,708,l),
(348.667,617.333,o),
(269,515.333,o),
(269,374,cs),
(269,304.667,o),
(285.5,243.333,o),
(335.5,198,cs),
(385.5,152.667,o),
(469.667,123,o),
(603,123,cs)
);
},
{
closed = 1;
nodes = (
(367,1097,o),
(390.167,1042.333,o),
(425.5,993,cs),
(460.833,943.667,o),
(507,891.667,o),
(551,853,c),
(674.934,927.36,o),
(803,1013.129,o),
(803,1153,cs),
(803,1275.924,o),
(747.672,1338,o),
(580,1338,cs),
(427.884,1338,o),
(367,1267.854,o),
(367,1149,cs)
);
}
);
userData = {
org.robofab.postScriptHintData = {
};
};
vertWidth = 0;
width = 1464;
}
);
unicode = 38;
},
{
glyphname = paragraph;
layers = (
{
layerId = "C1664359-F853-4045-A63D-7A2F9FE31172";
shapes = (
{
closed = 1;
nodes = (
(209.281,869.952,o),
(67,934.375,o),
(67,1148,cs),
(68.333,1281.333,o),
(118.167,1354.333,o),
(209.5,1393,cs),
(300.833,1431.667,o),
(433.667,1437,o),
(603,1437,cs),
(1101,1437,l),
(1126,1298,l),
(901,1298,l),
(901,-3,l),
(733,-3,l),
(733,1298,l),
(608,1298,l),
(608,-3,l),
(440,-3,l),
(440,878,l),
(440,878,l)
);
}
);
userData = {
org.robofab.postScriptHintData = {
};
};
vertWidth = 0;
width = 1182;
}
);
unicode = 182;
},
{
glyphname = section;
layers = (
{
layerId = "C1664359-F853-4045-A63D-7A2F9FE31172";
shapes = (
{
closed = 1;
nodes = (
(125.656,1311.465,o),
(314.951,1360,o),
(487,1360,cs),
(573.667,1360,o),
(644.333,1345.667,o),
(695,1331,cs),
(724.333,1322.333,o),
(750.667,1312.667,o),
(774,1302,c),
(774,1296.772,o),
(796,1250.623,o),
(796,1163,c),
(751.022,1184.166,o),
(653.224,1223,o),
(486,1223,cs),
(369.667,1220.295,o),
(286,1203.864,o),
(286,1094,cs),
(286,977.372,o),
(405.82,953.472,o),
(567,889,cs),
(753.02,816.209,o),
(878,768.964,o),
(878,617,cs),
(878,520.53,o),
(801.09,443.394,o),
(781,430,c),
(832.294,392.955,o),
(895.642,324.736,o),
(893,227,cs),
(893,72.519,o),
(787.254,-47,o),
(504,-47,cs),
(408,-47,o),
(329,-31.333,o),
(273,-14,cs),
(240.333,-4.667,o),
(210.667,6.333,o),
(184,19,c),
(162,159,l),
(192,145.667,o),
(225.333,134,o),
(262,124,cs),
(323.333,106.667,o),
(407,90,o),
(499,90,cs),
(638.31,90,o),
(718.336,125.421,o),
(721,232,cs),
(723.769,359.381,o),
(545.995,391.071,o),
(406,449,cs),
(295.333,494.333,o),
(227.5,533.5,o),
(185.5,575.5,cs),
(143.5,617.5,o),
(130,662.333,o),
(130,717,cs),
(130,796.676,o),
(181.882,853.797,o),
(231,892,c),
(184.504,923.966,o),
(120.485,985.376,o),
(123,1091,cs)
);
},
{
closed = 1;
nodes = (
(751,641.667,o),
(734.333,665.5,o),
(697,687.5,cs),
(659.667,709.5,o),
(602.333,731,o),
(521,763,cs),
(458.94,786.273,o),
(376.941,817.917,o),
(312,846,c),
(288.731,831.457,o),
(256.547,789.198,o),
(254,751,cs),
(251.333,713.667,o),
(258.833,688.333,o),
(287.5,663,cs),
(316.167,637.667,o),
(368.333,612,o),
(455,576,cs),
(514.949,552.384,o),
(629.472,509.109,o),
(699,476,c),
(709,485.333,o),
(717.667,496,o),
(725,508,cs),
(738.333,529.333,o),
(751,560.333,o),
(751,603,cs)
);
}
);
userData = {
org.robofab.postScriptHintData = {
};
};
vertWidth = 0;
width = 1003;
}
);
unicode = 167;
},
{
glyphname = copyright;
layers = (
{
layerId = "C1664359-F853-4045-A63D-7A2F9FE31172";
shapes = (
{
closed = 1;
nodes = (
(1402,865.424,o),
(1345.019,1018.697,o),
(1243.5,1135,cs),
(1140.021,1253.548,o),
(988.844,1329,o),
(808,1329,cs),
(463.237,1329,o),
(212,1051.144,o),
(212,708,cs),
(212,354.117,o),
(462.972,89,o),
(808,89,cs),
(1125.669,89,o),
(1402,332.548,o),
(1402,708,cs)
);
},
{
closed = 1;
nodes = (
(1520,489.319,o),
(1434.658,306.081,o),
(1298.5,179,cs),
(1156.21,46.196,o),
(978.298,-17,o),
(806,-17,cs),
(612.138,-17,o),
(430.032,56.944,o),
(299.5,189.5,cs),
(171.801,319.179,o),
(92,497.405,o),
(92,708,cs),
(92,912.643,o),
(170.944,1093.436,o),
(302,1225.5,cs),
(435.021,1359.544,o),
(615.579,1435,o),
(806,1435,cs),
(1016.187,1435,o),
(1198.48,1348.522,o),
(1323.5,1211.5,cs),
(1448.323,1074.694,o),
(1520,896.755,o),
(1520,708,cs)
);
},
{
closed = 1;
nodes = (
(1017.423,298.211,o),
(926.547,248,o),
(816,248,cs),
(525.886,248,o),
(421,476.073,o),
(421,708,cs),
(421,971.247,o),
(553.271,1167,o),
(816,1167,cs),
(912.9,1167,o),
(1028.13,1122.58,o),
(1047,1110,c),
(1053,1013,l),
(1032.333,1021,o),
(1010,1028.667,o),
(986,1036,cs),
(943.333,1048,o),
(887,1060,o),
(823,1060,cs),
(615.711,1060,o),
(546,902.618,o),
(546,708,cs),
(546,504.196,o),
(612.189,355,o),
(823,355,cs),
(928.062,355,o),
(1037.824,401.824,o),
(1053,417,c),
(1047,313,l),
(1047,313,l)
);
}
);
userData = {
org.robofab.postScriptHintData = {
};
};
vertWidth = 0;
width = 1612;
}
);
unicode = 169;
},
{
glyphname = registered;
layers = (
{
layerId = "C1664359-F853-4045-A63D-7A2F9FE31172";
shapes = (
{
closed = 1;
nodes = (
(589,1019,ls),
(687.216,1019,o),
(714,1040.836,o),
(714,1106,cs),
(714,1167.906,o),
(691.505,1185,o),
(567,1185,cs),
(539,1185,l),
(539,1019,l),
(539,1019,l)
);
},
{
closed = 1;
nodes = (
(577,947,l),
(537,947,l),
(537,720,l),
(449,720,l),
(449,1257,l),
(569,1257,ls),
(662.333,1257,o),
(720.333,1244.333,o),
(755,1219,cs),
(789.667,1193.667,o),
(801,1155.333,o),
(801,1106,cs),
(801,1014.324,o),
(764.669,973.966,o),
(659,955,c),
(667,943.667,o),
(675,931.667,o),
(683,919,cs),
(697.667,896.333,o),
(716.333,867.333,o),
(735,838,cs),
(811,720,l),
(715,720,l),
(715,720,l)
);
},
{
closed = 1;
nodes = (
(110,1260.08,o),
(333.238,1481,o),
(610,1481,cs),
(885.824,1481,o),
(1108,1261.552,o),
(1108,981,cs),
(1108,703.169,o),
(888.243,482,o),
(610,482,cs),
(332.314,482,o),
(110,703.146,o),
(110,981,cs)
);
},
{
closed = 1;
nodes = (
(197,742.57,o),
(379.244,565,o),
(610,565,cs),
(840.453,565,o),
(1023,742.696,o),
(1023,980,cs),
(1023,1215.958,o),
(840.455,1397,o),
(610,1397,cs),
(379.545,1397,o),
(197,1215.958,o),
(197,980,cs)
);
}
);
userData = {
org.robofab.postScriptHintData = {
};
};
vertWidth = 0;
width = 1218;
}
);
unicode = 174;
},
{
glyphname = trademark;
layers = (
{
layerId = "C1664359-F853-4045-A63D-7A2F9FE31172";
shapes = (
{
closed = 1;
nodes = (
(345,897,l),
(248,897,l),
(248,1330,l),
(116,1330,l),
(116,1405,l),
(478,1405,l),
(478,1330,l),
(345,1330,l),
(345,1330,l)
);
},
{
closed = 1;
nodes = (
(928,1172,l),
(940,1368,l),
(900,1186,l),
(874.667,1091.333,o),
(850.667,1001,o),
(824,905,c),
(728,905,l),
(684,1057,o),
(647.333,1208.333,o),
(614,1363,c),
(626,1172,l),
(626,1127,l),
(626,897,l),
(537,897,l),
(537,1405,l),
(677,1405,l),
(687,1363.667,o),
(697.5,1322.833,o),
(708.5,1282.5,cs),
(719.5,1242.167,o),
(729.667,1201,o),
(739,1159,cs),
(777,986,l),
(814,1184,l),
(816,1190,o),
(818,1196.333,o),
(820,1203,cs),
(822,1209.667,o),
(824,1216.333,o),
(826,1223,cs),
(877,1405,l),
(1017,1405,l),
(1017,897,l),
(928,897,l),
(928,897,l)
);
}
);
userData = {
org.robofab.postScriptHintData = {
};
};
vertWidth = 0;
width = 1169;
}
);
unicode = 8482;
},
{
glyphname = degree;
layers = (
{
layerId = "C1664359-F853-4045-A63D-7A2F9FE31172";
shapes = (
{
closed = 1;
nodes = (
(456,1053,o),
(411.667,1103,o),
(337,1103,cs),
(265,1103,o),
(218,1054.333,o),
(218,985,cs),
(218,917,o),
(261,869,o),
(337,869,cs),
(409,869,o),
(456,915.667,o),
(456,985,cs)
);
},
{
closed = 1;
nodes = (
(570,856.201,o),
(474.791,755,o),
(337,755,cs),
(207.839,755,o),
(106,847.844,o),
(106,985,cs),
(106,1114.513,o),
(199.629,1213,o),
(337,1213,cs),
(471.178,1213,o),
(570,1116.234,o),
(570,985,cs)
);
}
);
userData = {
org.robofab.postScriptHintData = {
};
};
vertWidth = 0;
width = 675;
}
);
unicode = 176;
},
{
glyphname = bar;
layers = (
{
layerId = "C1664359-F853-4045-A63D-7A2F9FE31172";
shapes = (
{
closed = 1;
nodes = (
(173,1473,l),
(361,1473,l),
(361,-131,l),
(173,-131,l),
(173,-131,l)
);
}
);
userData = {
org.robofab.postScriptHintData = {
};
};
vertWidth = 0;
width = 533;
}
);
unicode = 124;
},
{
glyphname = brokenbar;
layers = (
{
layerId = "C1664359-F853-4045-A63D-7A2F9FE31172";
shapes = (
{
closed = 1;
nodes = (
(177,576,l),
(357,576,l),
(357,-138,l),
(177,-138,l),
(177,-138,l)
);
},
{
closed = 1;
nodes = (
(177,1473,l),
(357,1473,l),
(357,815,l),
(177,815,l),
(177,815,l)
);
}
);
userData = {
org.robofab.postScriptHintData = {
};
};
vertWidth = 0;
width = 534;
}
);
unicode = 166;
},
{
glyphname = dagger;
layers = (
{
layerId = "C1664359-F853-4045-A63D-7A2F9FE31172";
shapes = (
{
closed = 1;
nodes = (
(790,883,l),
(507,883,l),
(507,0,l),
(346,0,l),
(346,883,l),
(63,883,l),
(63,1008,l),
(346,1008,l),
(346,1334,l),
(507,1334,l),
(507,1008,l),
(790,1008,l),
(790,1008,l)
);
}
);
userData = {
org.robofab.postScriptHintData = {
};
};
vertWidth = 0;
width = 853;
}
);
unicode = 8224;
},
{
glyphname = daggerdbl;
layers = (
{
layerId = "C1664359-F853-4045-A63D-7A2F9FE31172";
shapes = (
{
closed = 1;
nodes = (
(117,522,l),
(332,522,l),
(332,867,l),
(117,867,l),
(117,979,l),
(332,979,l),
(332,1252,l),
(497,1252,l),
(497,979,l),
(714,979,l),
(714,867,l),
(497,867,l),
(497,522,l),
(714,522,l),
(714,410,l),
(497,410,l),
(497,129,l),
(332,129,l),
(332,410,l),
(117,410,l),
(117,410,l)
);
}
);
userData = {
org.robofab.postScriptHintData = {
};
};
vertWidth = 0;
width = 831;
}
);
unicode = 8225;
},
{
glyphname = cent;
layers = (
{
layerId = "C1664359-F853-4045-A63D-7A2F9FE31172";
shapes = (
{
closed = 1;
nodes = (
(500,-129,l),
(528,1161,l),
(588,1161,l),
(562,-129,l),
(562,-129,l)
);
},
{
closed = 1;
nodes = (
(97,704,o),
(156.167,837.333,o),
(243.5,920,cs),
(330.833,1002.667,o),
(444.333,1036.333,o),
(555,1035,cs),
(744.832,1035,o),
(898.196,934.024,o),
(885,744,c),
(733,750,l),
(734.333,852.667,o),
(669.333,894.333,o),
(556,893,cs),
(476,891.667,o),
(409,868,o),
(361,808,cs),
(313,748,o),
(286,651,o),
(286,507,cs),
(286,216.875,o),
(387.078,109,o),
(567,109,cs),
(645.667,109,o),
(718.5,126.667,o),
(772.5,144,cs),
(818.735,158.841,o),
(860,179,o),
(860,179,c),
(834,42,l),
(799.794,19.196,o),
(689.699,-28,o),
(551,-28,cs),
(443.974,-28,o),
(334.747,1.13,o),
(242,86.5,cs),
(183.333,140.5,o),
(140.167,219.833,o),
(115.5,324.5,cs),
(103.167,376.833,o),
(97,436.667,o),
(97,504,cs)
);
}
);
userData = {
org.robofab.postScriptHintData = {
};
};
vertWidth = 0;
width = 981;
}
);
unicode = 162;
},
{
glyphname = currency;
layers = (
{
layerId = "C1664359-F853-4045-A63D-7A2F9FE31172";
shapes = (
{
closed = 1;
nodes = (
(699,1354,o),
(780,1326.333,o),
(844,1281,c),
(970,1409,l),
(1040,1337,l),
(916,1213,l),
(977.333,1138.333,o),
(1005,1043.667,o),
(1005,945,cs),
(1005,847.667,o),
(979,755.333,o),
(919,682,c),
(1040,560,l),
(973,490,l),
(850,613,l),
(786,565,o),
(701.667,536,o),
(591,536,cs),
(480.333,536,o),
(396.333,565.333,o),
(331,612,c),
(211,490,l),
(145,560,l),
(262,679,l),
(202,753.667,o),
(175,847.667,o),
(175,945,cs),
(175,1045,o),
(202.333,1140.333,o),
(265,1215,c),
(145,1337,l),
(215,1409,l),
(338,1283,l),
(402,1327,o),
(483,1354,o),
(591,1354,cs)
);
},
{
closed = 1;
nodes = (
(776.047,677,o),
(849,805.596,o),
(849,945,cs),
(849,1083.313,o),
(776.892,1211,o),
(591,1211,cs),
(403.724,1211,o),
(332,1083.149,o),
(332,945,cs),
(332,805.425,o),
(404.37,677,o),
(591,677,cs)
);
}
);
userData = {
org.robofab.postScriptHintData = {
};
};
vertWidth = 0;
width = 1184;
}
);
unicode = 164;
},
{
glyphname = dollar;
layers = (
{
layerId = "C1664359-F853-4045-A63D-7A2F9FE31172";
shapes = (
{
closed = 1;
nodes = (
(468.333,32,o),
(462,32.167,o),
(454,32.5,cs),
(446,32.833,o),
(440,33,o),
(436,33,cs),
(344,37,o),
(268,54.667,o),
(216,72,cs),
(185.333,82,o),
(158.333,92.667,o),
(135,104,c),
(110,254,l),
(139.333,240.667,o),
(171.667,228.333,o),
(207,217,cs),
(267,198.333,o),
(347.333,179,o),
(438,175,cs),
(441.333,175,o),
(446.5,174.833,o),
(453.5,174.5,cs),
(460.5,174.167,o),
(466,174,o),
(470,174,c),
(458,651,l),
(440.667,656.333,o),
(425,661.667,o),
(409,667,cs),
(195.141,739.177,o),
(93,825.299,o),
(93,1022,cs),
(93,1222.144,o),
(237.765,1331.781,o),
(442,1353,c),
(437,1593,l),
(544,1593,l),
(549,1356,l),
(634.333,1353.333,o),
(709.333,1340,o),
(764,1328,cs),
(796,1320.667,o),
(825,1313,o),
(851,1305,c),
(871,1154,l),
(842.333,1164,o),
(811,1173,o),
(777,1181,cs),
(718.333,1195.667,o),
(640,1209,o),
(552,1213,c),
(563,787,l),
(802.711,709.76,o),
(930,657.739,o),
(930,398,cs),
(930,197.807,o),
(828.918,61.481,o),
(580,35,c),
(586,-201,l),
(478,-201,l),
(473,32,l),
(473,32,l)
);
},
{
closed = 1;
nodes = (
(754,510.027,o),
(710.425,562.184,o),
(566,613,c),
(577,184,l),
(685.454,202.516,o),
(754,257.768,o),
(754,381,cs)
);
},
{
closed = 1;
nodes = (
(257,917.668,o),
(308.285,871.439,o),
(454,822,c),
(446,1206,l),
(337.686,1190.149,o),
(257,1131.793,o),
(257,1016,cs)
);
}
);
userData = {
org.robofab.postScriptHintData = {
};
};
vertWidth = 0;
width = 1014;
}
);
unicode = 36;
},
{
glyphname = euro;
layers = (
{
layerId = "C1664359-F853-4045-A63D-7A2F9FE31172";
shapes = (
{
closed = 1;
nodes = (
(204,890,l),
(229.333,1091.333,o),
(299.5,1228.5,o),
(401.5,1314.5,cs),
(503.5,1400.5,o),
(635.333,1436,o),
(786,1436,cs),
(894,1436,o),
(989,1420.667,o),
(1057,1406,cs),
(1097,1397.333,o),
(1133,1387.667,o),
(1165,1377,c),
(1180,1226,l),
(1146.667,1237.333,o),
(1110,1247.667,o),
(1070,1257,cs),
(1002,1271.667,o),
(909.667,1288,o),
(807,1288,cs),
(697.667,1288,o),
(606.167,1261.833,o),
(537.5,1198.5,cs),
(468.833,1135.167,o),
(421.667,1036.667,o),
(403,890,c),
(699,890,l),
(699,762,l),
(391,762,l),
(391,718,ls),
(391,706,o),
(391,694.333,o),
(391,683,cs),
(391,671.667,o),
(391.333,660.333,o),
(392,649,c),
(701,649,l),
(701,521,l),
(406,521,l),
(423.333,377,o),
(465.167,277,o),
(528.5,213,cs),
(591.833,149,o),
(678.667,121,o),
(788,121,cs),
(897.333,121,o),
(994,137.333,o),
(1066,156,cs),
(1107.333,166,o),
(1145.333,177.667,o),
(1180,191,c),
(1164,39,l),
(1131.333,26.333,o),
(1094.333,15,o),
(1053,5,cs),
(982.333,-12.333,o),
(883.333,-28,o),
(766,-28,cs),
(626,-28,o),
(498.5,2.833,o),
(400.5,87.5,cs),
(302.5,172.167,o),
(233.667,309,o),
(207,521,c),
(81,521,l),
(81,649,l),
(194,649,l),
(192.667,671.667,o),
(192,693.333,o),
(192,716,cs),
(192,720,o),
(192,727.667,o),
(192,739,cs),
(192,750.333,o),
(192.333,758,o),
(193,762,c),
(80,762,l),
(80,890,l),
(80,890,l)
);
}
);
userData = {
org.robofab.postScriptHintData = {
};
};
vertWidth = 0;
width = 1279;
}
);
unicode = 8364;
},
{
glyphname = sterling;
layers = (
{
layerId = "C1664359-F853-4045-A63D-7A2F9FE31172";
shapes = (
{
closed = 1;
nodes = (
(89,-3,l),
(89,140,l),
(185,140,l),
(201.667,158.667,o),
(216.333,191.333,o),
(229,238,cs),
(250.304,317.889,o),
(274,454.954,o),
(274,697,c),
(108,697,l),
(108,814,l),
(274,814,l),
(274,1059,ls),
(274,1301.083,o),
(381.32,1455.656,o),
(623,1453,cs),
(693.667,1451.667,o),
(754,1438.667,o),
(798,1424,cs),
(824,1416,o),
(847.333,1406.667,o),
(868,1396,c),
(868,1257,l),
(847.333,1265,o),
(825.667,1272.667,o),
(803,1280,cs),
(764.333,1292,o),
(710,1302.667,o),
(654,1304,cs),
(438.902,1304,o),
(460,1132.772,o),
(460,814,c),
(821,814,l),
(821,697,l),
(460,697,l),
(460,570.333,o),
(452.667,472,o),
(442,396,cs),
(431.333,320,o),
(416.333,266.333,o),
(403,229,cs),
(386.333,184.333,o),
(367.667,155,o),
(347,141,c),
(885,141,l),
(874,-3,l),
(874,-3,l)
);
}
);
userData = {
org.robofab.postScriptHintData = {
};
};
vertWidth = 0;
width = 994;
}
);
unicode = 163;
},
{
glyphname = yen;
layers = (
{
layerId = "C1664359-F853-4045-A63D-7A2F9FE31172";
shapes = (
{
closed = 1;
nodes = (
(406,550,l),
(396.62,568.761,o),
(338.724,709.705,o),
(230,974.5,cs),
(121.766,1238.102,o),
(64.212,1379.577,o),
(55,1398,c),
(246,1398,l),
(447,879,l),
(449.66,863.037,o),
(461.99,829.087,o),
(487.5,744.5,cs),
(513.685,657.675,o),
(525.093,626.44,o),
(528,609,c),
(532.855,623.564,o),
(540.795,649.643,o),
(570.5,743,cs),
(596.867,825.868,o),
(611.437,872.748,o),
(613,879,c),
(613,887.492,o),
(665.084,1024.633,o),
(708,1135.5,cs),
(771.197,1298.758,o),
(804.373,1386.432,o),
(809,1398,c),
(1001,1398,l),
(995.882,1387.765,o),
(976.434,1339.303,o),
(940.5,1253.5,cs),
(907.833,1175.5,o),
(866.333,1075.167,o),
(825,974.5,cs),
(716.276,709.705,o),
(658.38,568.761,o),
(649,550,c),
(899,550,l),
(899,460,l),
(628,460,l),
(626.207,451.034,o),
(623,410.654,o),
(623,339,c),
(902,339,l),
(902,254,l),
(618,254,l),
(618,-3,l),
(437,-3,l),
(437,254,l),
(170,254,l),
(170,339,l),
(433,339,l),
(427,460,l),
(170,460,l),
(170,550,l),
(170,550,l)
);
}
);
userData = {
org.robofab.postScriptHintData = {
};
};
vertWidth = 0;
width = 1061;
}
);
unicode = 165;
},
{
glyphname = plus;
layers = (
{
layerId = "C1664359-F853-4045-A63D-7A2F9FE31172";
shapes = (
{
closed = 1;
nodes = (
(493,153,l),
(355,153,l),
(355,455,l),
(91,455,l),
(91,591,l),
(355,591,l),
(355,895,l),
(493,895,l),
(493,591,l),
(757,591,l),
(757,455,l),
(493,455,l),
(493,455,l)
);
}
);
userData = {
org.robofab.postScriptHintData = {
};
};
vertWidth = 0;
width = 848;
}
);
unicode = 43;
},
{
glyphname = minus;
layers = (
{
layerId = "C1664359-F853-4045-A63D-7A2F9FE31172";
shapes = (
{
closed = 1;
nodes = (
(159,455,l),
(159,591,l),
(825,591,l),
(825,455,l),
(825,455,l)
);
}
);
userData = {
org.robofab.postScriptHintData = {
};
};
vertWidth = 0;
width = 984;
}
);
unicode = 8722;
},
{
glyphname = multiply;
layers = (
{
layerId = "C1664359-F853-4045-A63D-7A2F9FE31172";
shapes = (
{
closed = 1;
nodes = (
(731,323,l),
(633,226,l),
(432,427,l),
(231,226,l),
(134,323,l),
(334,524,l),
(134,725,l),
(231,823,l),
(432,622,l),
(633,823,l),
(731,725,l),
(529,524,l),
(529,524,l)
);
}
);
userData = {
org.robofab.postScriptHintData = {
};
};
vertWidth = 0;
width = 865;
}
);
unicode = 215;
},
{
glyphname = divide;
layers = (
{
layerId = "C1664359-F853-4045-A63D-7A2F9FE31172";
shapes = (
{
closed = 1;
nodes = (
(427,908,l),
(602,908,l),
(602,731,l),
(427,731,l),
(427,731,l)
);
},
{
closed = 1;
nodes = (
(127,641,l),
(896,641,l),
(896,521,l),
(127,521,l),
(127,521,l)
);
},
{
closed = 1;
nodes = (
(427,421,l),
(602,421,l),
(602,243,l),
(427,243,l),
(427,243,l)
);
}
);
userData = {
org.robofab.postScriptHintData = {
};
};
vertWidth = 0;
width = 1022;
}
);
unicode = 247;
},
{
glyphname = equal;
layers = (
{
layerId = "C1664359-F853-4045-A63D-7A2F9FE31172";
shapes = (
{
closed = 1;
nodes = (
(779,615,l),
(779,487,l),
(159,487,l),
(159,615,l),
(159,615,l)
);
},
{
closed = 1;
nodes = (
(779,534,l),
(779,405,l),
(160,405,l),
(160,534,l),
(160,534,l)
);
}
);
userData = {
org.robofab.postScriptHintData = {
};
};
vertWidth = 0;
width = 939;
}
);
unicode = 61;
},
{
glyphname = notequal;
layers = (
{
layerId = "C1664359-F853-4045-A63D-7A2F9FE31172";
shapes = (
{
closed = 1;
nodes = (
(390,181,l),
(268,229,l),
(310,334,l),
(106,336,l),
(106,449,l),
(348,449,l),
(387,548,l),
(104,548,l),
(104,663,l),
(425,663,l),
(488,830,l),
(613,788,l),
(563,663,l),
(769,663,l),
(769,548,l),
(526,548,l),
(486,449,l),
(771,449,l),
(771,334,l),
(448,334,l),
(448,334,l)
);
}
);
userData = {
org.robofab.postScriptHintData = {
};
};
vertWidth = 0;
width = 874;
}
);
unicode = 8800;
},
{
glyphname = greater;
layers = (
{
layerId = "C1664359-F853-4045-A63D-7A2F9FE31172";
shapes = (
{
closed = 1;
nodes = (
(181,138,l),
(132,301,l),
(702,561,l),
(132,823,l),
(181,987,l),
(909,623,l),
(909,506,l),
(909,506,l)
);
}
);
userData = {
org.robofab.postScriptHintData = {
};
};
vertWidth = 0;
width = 988;
}
);
unicode = 62;
},
{
glyphname = less;
layers = (
{
layerId = "C1664359-F853-4045-A63D-7A2F9FE31172";
shapes = (
{
closed = 1;
nodes = (
(808,987,l),
(857,823,l),
(285,561,l),
(857,301,l),
(808,138,l),
(79,506,l),
(79,623,l),
(79,623,l)
);
}
);
userData = {
org.robofab.postScriptHintData = {
};
};
vertWidth = 0;
width = 989;
}
);
unicode = 60;
},
{
glyphname = greaterequal;
layers = (
{
layerId = "C1664359-F853-4045-A63D-7A2F9FE31172";
shapes = (
{
closed = 1;
nodes = (
(155,121,l),
(880,121,l),
(880,-6,l),
(155,-6,l),
(155,-6,l)
);
},
{
closed = 1;
nodes = (
(158,446,l),
(177.529,454.877,o),
(260.894,487.36,o),
(407.5,545,cs),
(553.982,602.591,o),
(636.551,635.928,o),
(656,643,c),
(634.812,651.668,o),
(515.665,699.264,o),
(407.5,741.5,cs),
(283.689,789.845,o),
(222.635,813.558,o),
(158,840,c),
(158,1008,l),
(196.911,991.324,o),
(340.806,926.975,o),
(514,850,cs),
(598,812.667,o),
(682.5,775.167,o),
(748.5,746.5,cs),
(821.034,714.995,o),
(861.759,695.841,o),
(872,692,c),
(872,600,l),
(158,280,l),
(158,280,l)
);
}
);
userData = {
org.robofab.postScriptHintData = {
};
};
vertWidth = 0;
width = 1007;
}
);
unicode = 8805;
},
{
glyphname = lessequal;
layers = (
{
layerId = "C1664359-F853-4045-A63D-7A2F9FE31172";
shapes = (
{
closed = 1;
nodes = (
(127,121,l),
(852,121,l),
(852,-6,l),
(127,-6,l),
(127,-6,l)
);
},
{
closed = 1;
nodes = (
(830.545,286.921,o),
(711.596,340.159,o),
(492,439.5,cs),
(270.048,539.907,o),
(150.94,593.169,o),
(135,600,c),
(135,692,l),
(143.888,695.809,o),
(184.723,714.348,o),
(258,746.5,cs),
(323.333,775.167,o),
(408,812.667,o),
(492,850,cs),
(711.813,947.695,o),
(830.496,1001.061,o),
(849,1008,c),
(849,840,l),
(827.812,831.332,o),
(708.665,783.736,o),
(600.5,741.5,cs),
(492.335,699.264,o),
(373.188,651.668,o),
(352,643,c),
(371.449,635.928,o),
(454.018,602.591,o),
(600.5,545,cs),
(751.026,485.819,o),
(842.572,448.338,o),
(849,446,c),
(849,280,l),
(849,280,l)
);
}
);
userData = {
org.robofab.postScriptHintData = {
};
};
vertWidth = 0;
width = 1007;
}
);
unicode = 8804;
},
{
glyphname = plusminus;
layers = (
{
layerId = "C1664359-F853-4045-A63D-7A2F9FE31172";
shapes = (
{
closed = 1;
nodes = (
(132,109,l),
(916,109,l),
(916,-5,l),
(132,-5,l),
(132,-5,l)
);
},
{
closed = 1;
nodes = (
(598,403,l),
(453,403,l),
(453,762,l),
(132,762,l),
(132,884,l),
(453,884,l),
(453,1247,l),
(598,1247,l),
(598,884,l),
(916,884,l),
(916,762,l),
(598,762,l),
(598,762,l)
);
}
);
userData = {
org.robofab.postScriptHintData = {
};
};
vertWidth = 0;
width = 1047;
}
);
unicode = 177;
},
{
glyphname = approxequal;
layers = (
{
layerId = "C1664359-F853-4045-A63D-7A2F9FE31172";
shapes = (
{
closed = 1;
nodes = (
(860,748,o),
(854,717.667,o),
(842,691,cs),
(819.866,643.966,o),
(769.731,601,o),
(675,601,cs),
(557.907,601,o),
(418.139,703,o),
(336,703,cs),
(297.333,703,o),
(279.333,682.667,o),
(270,664,cs),
(264.667,652.667,o),
(261.667,640,o),
(261,626,c),
(152,626,l),
(154,658.667,o),
(162,688.333,o),
(176,715,cs),
(198.32,757.161,o),
(242.636,805,o),
(341,805,cs),
(461.684,805,o),
(594.614,707,o),
(679,707,cs),
(748.266,707,o),
(749,760.07,o),
(749,782,c),
(860,782,l),
(860,782,l)
);
},
{
closed = 1;
nodes = (
(860,532.667,o),
(854,502.667,o),
(842,476,cs),
(819.866,428.966,o),
(769.731,386,o),
(675,386,cs),
(559.37,386,o),
(416.843,487,o),
(336,487,cs),
(297.333,487,o),
(279.333,466.667,o),
(270,448,cs),
(264.667,436.667,o),
(261.667,424,o),
(261,410,c),
(152,410,l),
(154,443.333,o),
(162,473.333,o),
(176,500,cs),
(198.32,542.161,o),
(242.636,590,o),
(341,590,cs),
(463.901,590,o),
(592.264,491,o),
(679,491,cs),
(746.402,491,o),
(749,538.236,o),
(749,566,c),
(860,566,l),
(860,566,l)
);
}
);
userData = {
org.robofab.postScriptHintData = {
};
};
vertWidth = 0;
width = 1014;
}
);
unicode = 8776;
},
{
glyphname = asciitilde;
layers = (
{
layerId = "C1664359-F853-4045-A63D-7A2F9FE31172";
shapes = (
{
closed = 1;
nodes = (
(579.333,613,o),
(593,614.667,o),
(603,622,cs),
(623,636.667,o),
(627.667,670.333,o),
(629,705,c),
(760,705,l),
(762.53,555.742,o),
(685.389,493.829,o),
(609,491,cs),
(595.667,489.667,o),
(582.667,490.333,o),
(568,493,cs),
(475.481,503.885,o),
(382.786,592.192,o),
(321,595,cs),
(280.411,595,o),
(268,549.981,o),
(268,498,c),
(136,498,l),
(134.667,584.667,o),
(156.833,641.5,o),
(189.5,675.5,cs),
(222.167,709.5,o),
(267,722.333,o),
(311,721,cs),
(405.503,715.892,o),
(507.898,626.017,o),
(562,617,cs)
);
}
);
userData = {
org.robofab.postScriptHintData = {
};
};
vertWidth = 0;
width = 893;
}
);
unicode = 126;
},
{
glyphname = logicalnot;
layers = (
{
layerId = "C1664359-F853-4045-A63D-7A2F9FE31172";
shapes = (
{
closed = 1;
nodes = (
(1025,692,l),
(104,692,l),
(104,836,l),
(1205,836,l),
(1205,119,l),
(1025,119,l),
(1025,119,l)
);
}
);
userData = {
org.robofab.postScriptHintData = {
};
};
vertWidth = 0;
width = 1386;
}
);
unicode = 172;
},
{
glyphname = asciicircum;
layers = (
{
layerId = "C1664359-F853-4045-A63D-7A2F9FE31172";
shapes = (
{
closed = 1;
nodes = (
(662,279,l),
(651.352,303.846,o),
(612.343,414.725,o),
(552.5,579,cs),
(487.512,757.397,o),
(448.918,865.246,o),
(444,880,c),
(422.866,821.881,o),
(391.172,732.474,o),
(335.5,579,cs),
(269.646,397.456,o),
(239.202,307.005,o),
(228,279,c),
(52,279,l),
(59.272,293.543,o),
(141.699,487.475,o),
(209.5,646.5,cs),
(277.096,805.044,o),
(356.477,991.953,o),
(367,1013,c),
(522,1013,l),
(836,279,l),
(836,279,l)
);
}
);
userData = {
org.robofab.postScriptHintData = {
};
};
vertWidth = 0;
width = 889;
}
);
unicode = 94;
},
{
glyphname = infinity;
layers = (
{
layerId = "C1664359-F853-4045-A63D-7A2F9FE31172";
shapes = (
{
closed = 1;
nodes = (
(869.839,689.649,o),
(840.592,738.708,o),
(759,821.5,cs),
(689.312,892.213,o),
(606.85,949,o),
(526,949,cs),
(374.7,949,o),
(266,848.511,o),
(266,644,cs),
(266,433.507,o),
(373.393,332,o),
(523,332,cs),
(615.964,332,o),
(697.805,385.792,o),
(762,454,cs),
(831.612,527.963,o),
(875.985,600.204,o),
(911,643,c)
);
},
{
closed = 1;
nodes = (
(1703,849.283,o),
(1581.161,948,o),
(1440,948,cs),
(1356.01,948,o),
(1274.796,894.24,o),
(1212.5,827,cs),
(1135.377,743.756,o),
(1111.953,700.236,o),
(1064,641,c),
(1110.783,583.821,o),
(1141.77,532.88,o),
(1216.5,457,cs),
(1283.099,389.376,o),
(1359.893,339,o),
(1440,339,cs),
(1591.378,339,o),
(1703,438.755,o),
(1703,645,cs)
);
},
{
closed = 1;
nodes = (
(1842,382.035,o),
(1677.495,215,o),
(1453,215,cs),
(1233.139,215,o),
(1143.044,347.945,o),
(991,538,c),
(840.243,347.57,o),
(725.377,213,o),
(520,213,cs),
(286.731,213,o),
(129,376.158,o),
(129,644,cs),
(129,890.207,o),
(285.795,1070,o),
(516,1070,cs),
(738.246,1070,o),
(835.293,928.646,o),
(987,745,c),
(1138.438,935.603,o),
(1232.744,1072,o),
(1450,1072,cs),
(1691.168,1072,o),
(1842,890.059,o),
(1842,645,cs)
);
}
);
userData = {
org.robofab.postScriptHintData = {
};
};
vertWidth = 0;
width = 1972;
}
);
unicode = 8734;
},
{
glyphname = integral;
layers = (
{
layerId = "C1664359-F853-4045-A63D-7A2F9FE31172";
shapes = (
{
closed = 1;
nodes = (
(526,111,ls),
(526,-171.159,o),
(465.322,-378.635,o),
(175,-352,cs),
(135,-349.333,o),
(102.667,-340,o),
(80,-332,cs),
(66.667,-327.333,o),
(55,-322.333,o),
(45,-317,c),
(28,-195,l),
(43.333,-200.333,o),
(59.667,-204.667,o),
(77,-208,cs),
(106.333,-214.667,o),
(146.333,-220,o),
(185,-220,cs),
(310.109,-220,o),
(346,-178.15,o),
(346,9,cs),
(345,886,l),
(168,886,l),
(168,991,l),
(345,991,l),
(349,1144.333,o),
(364.167,1265.667,o),
(415.5,1347,cs),
(466.833,1428.333,o),
(552,1467.333,o),
(696,1454,cs),
(734.667,1451.333,o),
(768.333,1443,o),
(791,1435,cs),
(804.333,1430.333,o),
(816,1425,o),
(826,1419,c),
(842,1296,l),
(826.667,1300.667,o),
(810.333,1305,o),
(793,1309,cs),
(763.667,1315.667,o),
(724.667,1322,o),
(686,1322,cs),
(565.403,1322,o),
(525,1280.602,o),
(525,1092,cs),
(525,991,l),
(799,991,l),
(799,886,l),
(526,886,l),
(526,886,l)
);
}
);
userData = {
org.robofab.postScriptHintData = {
};
};
vertWidth = 0;
width = 882;
}
);
unicode = 8747;
},
{
glyphname = increment;
layers = (
{
layerId = "C1664359-F853-4045-A63D-7A2F9FE31172";
shapes = (
{
closed = 1;
nodes = (
(547,973,l),
(259,99,l),
(829,99,l),
(829,99,l)
);
},
{
closed = 1;
nodes = (
(460,1130,l),
(632,1130,l),
(1037,-2,l),
(52,-2,l),
(52,-2,l)
);
}
);
userData = {
org.robofab.postScriptHintData = {
};
};
vertWidth = 0;
width = 1090;
}
);
unicode = 8710;
},
{
glyphname = product;
layers = (
{
layerId = "C1664359-F853-4045-A63D-7A2F9FE31172";
shapes = (
{
closed = 1;
nodes = (
(1233,0,l),
(1045,0,l),
(1045,874,l),
(1056,1286,l),
(367,1286,l),
(377,848,l),
(377,0,l),
(190,0,l),
(190,1409,l),
(1233,1409,l),
(1233,1409,l)
);
}
);
userData = {
org.robofab.postScriptHintData = {
};
};
vertWidth = 0;
width = 1422;
}
);
unicode = 8719;
},
{
glyphname = summation;
layers = (
{
layerId = "C1664359-F853-4045-A63D-7A2F9FE31172";
shapes = (
{
closed = 1;
nodes = (
(449,338,l),
(319,151,l),
(491,160,l),
(972,160,l),
(972,-3,l),
(59,-3,l),
(497,707,l),
(72,1398,l),
(948,1398,l),
(949,1248,l),
(496,1248,l),
(315,1253,l),
(455,1059,l),
(683,707,l),
(683,707,l)
);
}
);
userData = {
org.robofab.postScriptHintData = {
};
};
vertWidth = 0;
width = 1062;
}
);
unicode = 8721;
},
{
glyphname = radical;
layers = (
{
layerId = "C1664359-F853-4045-A63D-7A2F9FE31172";
shapes = (
{
closed = 1;
nodes = (
(339,895,l),
(352.029,846.139,o),
(405.047,673.038,o),
(447.5,536.5,cs),
(472.167,457.167,o),
(496.333,377.167,o),
(515,312.5,cs),
(535.424,241.746,o),
(549.144,196.565,o),
(553,176,c),
(564.62,214.733,o),
(590.815,297.786,o),
(630.5,425.5,cs),
(667.167,543.5,o),
(712.667,687.167,o),
(758,830.5,cs),
(849.998,1121.375,o),
(939.111,1405.369,o),
(963,1485,c),
(1125,1435,l),
(1107.667,1388.333,o),
(1073.667,1286.167,o),
(1031,1157.5,cs),
(989.487,1032.312,o),
(942.078,884.9,o),
(886.5,716,cs),
(831.008,547.363,o),
(783.387,399.905,o),
(742.5,274,cs),
(700.5,144.667,o),
(666.333,42.667,o),
(649,-4,c),
(458,-4,l),
(180,812,l),
(30,812,l),
(30,895,l),
(30,895,l)
);
}
);
userData = {
org.robofab.postScriptHintData = {
};
};
vertWidth = 0;
width = 1153;
}
);
unicode = 8730;
},
{
glyphname = micro;
layers = (
{
layerId = "C1664359-F853-4045-A63D-7A2F9FE31172";
shapes = (
{
closed = 1;
nodes = (
(887,-8,l),
(862,132,l),
(838.667,102,o),
(811,75.333,o),
(779,52,cs),
(723,12,o),
(642,-28,o),
(534,-28,cs),
(416.405,-28,o),
(346.168,36.467,o),
(330,120,c),
(326,-300,l),
(171,-300,l),
(171,1019,l),
(354,1019,l),
(354,435,ls),
(354,319,o),
(366.333,239,o),
(397,187,cs),
(427.667,135,o),
(476.333,113,o),
(551,113,cs),
(635,113,o),
(704.333,141.333,o),
(755,172,cs),
(784.333,189.333,o),
(811,209,o),
(835,231,c),
(835,1019,l),
(1020,1019,l),
(1020,3,l),
(1020,3,l)
);
}
);
userData = {
org.robofab.postScriptHintData = {
};
};
vertWidth = 0;
width = 1161;
}
);
unicode = 181;
},
{
glyphname = partialdiff;
layers = (
{
layerId = "C1664359-F853-4045-A63D-7A2F9FE31172";
shapes = (
{
closed = 1;
nodes = (
(708.504,1539,o),
(825.355,1445.003,o),
(890,1294.5,cs),
(956.28,1140.192,o),
(974,949.528,o),
(974,757,cs),
(974,446.333,o),
(936.167,249.667,o),
(859.5,131,cs),
(782.833,12.333,o),
(667.333,-29,o),
(514,-29,cs),
(406.801,-29,o),
(305.401,-1.884,o),
(224,78.5,cs),
(170.667,131.167,o),
(130.5,210,o),
(108.5,318,cs),
(97.5,372,o),
(92,434.333,o),
(92,505,cs),
(92,659.667,o),
(126.167,792.333,o),
(193.5,887,cs),
(260.833,981.667,o),
(362.333,1038,o),
(497,1038,cs),
(593,1038,o),
(668.667,1001,o),
(722,965,cs),
(753.333,943.667,o),
(781,919.667,o),
(805,893,c),
(799.034,1006.361,o),
(794.76,1134.392,o),
(756.5,1244,cs),
(722.378,1341.755,o),
(649.278,1424,o),
(503,1424,cs),
(444.333,1424,o),
(392.667,1412.667,o),
(354,1402,cs),
(332,1395.333,o),
(311.667,1388.333,o),
(293,1381,c),
(293,1395.065,o),
(304,1475.828,o),
(304,1492,c),
(322.667,1500,o),
(343.667,1507.667,o),
(367,1515,cs),
(407,1527,o),
(463.667,1539,o),
(533,1539,cs)
);
},
{
closed = 1;
nodes = (
(620.56,109,o),
(687.018,135.034,o),
(735,225,cs),
(784.596,317.993,o),
(806,487.925,o),
(806,753,c),
(780,779,o),
(751.667,802.667,o),
(721,824,cs),
(669,860,o),
(598,894.667,o),
(522,896,cs),
(338.337,898.662,o),
(264,719.325,o),
(264,533,cs),
(264,385,o),
(285.333,278.167,o),
(328,209.5,cs),
(370.667,140.833,o),
(437,109,o),
(525,109,cs)
);
}
);
userData = {
org.robofab.postScriptHintData = {
};
};
vertWidth = 0;
width = 1105;
}
);
unicode = 8706;
},
{
glyphname = percent;
layers = (
{
layerId = "C1664359-F853-4045-A63D-7A2F9FE31172";
shapes = (
{
closed = 1;
nodes = (
(465.932,864,o),
(496,955.757,o),
(496,1099,cs),
(496,1242.816,o),
(466.2,1335,o),
(351,1335,cs),
(235.045,1335,o),
(205,1244.472,o),
(205,1099,cs),
(205,954.996,o),
(235.259,864,o),
(351,864,cs)
);
},
{
closed = 1;
nodes = (
(83,1327,o),
(177.667,1438,o),
(351,1438,cs),
(527,1438,o),
(619,1327,o),
(619,1099,cs),
(619,873.667,o),
(529.667,761,o),
(351,761,cs),
(175,761,o),
(83,871,o),
(83,1099,cs)
);
},
{
closed = 1;
nodes = (
(1083,1490,l),
(1196,1423,l),
(314,-77,l),
(205,-12,l),
(205,-12,l)
);
},
{
closed = 1;
nodes = (
(1187,464.816,o),
(1157.2,557,o),
(1042,557,cs),
(924.122,557,o),
(895,464.817,o),
(895,321,cs),
(895,177.183,o),
(924.122,85,o),
(1042,85,cs),
(1157.2,85,o),
(1187,177.184,o),
(1187,321,cs)
);
},
{
closed = 1;
nodes = (
(774,549,o),
(864.667,660,o),
(1042,660,cs),
(1218,660,o),
(1310,549,o),
(1310,321,cs),
(1310,95,o),
(1220.667,-18,o),
(1042,-18,cs),
(866,-18,o),
(774,93,o),
(774,321,cs)
);
}
);
userData = {
org.robofab.postScriptHintData = {
};
};
vertWidth = 0;
width = 1394;
}
);
unicode = 37;
},
{
glyphname = perthousand;
layers = (
{
layerId = "C1664359-F853-4045-A63D-7A2F9FE31172";
shapes = (
{
closed = 1;
nodes = (
(1186,1414,l),
(305,-87,l),
(196,-21,l),
(1073,1481,l),
(1073,1481,l)
);
},
{
closed = 1;
nodes = (
(84,1211.333,o),
(112,1295.833,o),
(160,1352.5,cs),
(208,1409.167,o),
(274.667,1437,o),
(352,1437,cs),
(510.903,1437,o),
(621,1326.235,o),
(621,1098,cs),
(621,873.066,o),
(514.749,760,o),
(352,760,cs),
(273.333,760,o),
(205.833,788,o),
(158.5,844,cs),
(111.167,900,o),
(84,984.667,o),
(84,1098,cs)
);
},
{
closed = 1;
nodes = (
(498,1242.06,o),
(458.089,1334,o),
(352,1334,cs),
(246.548,1334,o),
(206,1243.033,o),
(206,1098,cs),
(206,954.224,o),
(246.622,863,o),
(352,863,cs),
(457.333,863,o),
(498,952.667,o),
(498,1098,cs)
);
},
{
closed = 1;
nodes = (
(1423,423.333,o),
(1449.167,508,o),
(1496.5,564,cs),
(1543.833,620,o),
(1610,648,o),
(1690,648,cs),
(1770,648,o),
(1837.333,620,o),
(1884,564,cs),
(1930.667,508,o),
(1958,423.333,o),
(1958,310,cs),
(1958,81.768,o),
(1851.56,-29,o),
(1690,-29,cs),
(1611.333,-29,o),
(1544.667,-1.167,o),
(1498,55.5,cs),
(1451.333,112.167,o),
(1423,196.667,o),
(1423,310,cs)
);
},
{
closed = 1;
nodes = (
(1835,452.434,o),
(1797.528,545,o),
(1690,545,cs),
(1584.622,545,o),
(1544,453.776,o),
(1544,310,cs),
(1544,164.967,o),
(1584.548,74,o),
(1690,74,cs),
(1797.57,74,o),
(1835,166.313,o),
(1835,310,cs)
);
},
{
closed = 1;
nodes = (
(754,423.333,o),
(781.333,508,o),
(828,564,cs),
(874.667,620,o),
(942,648,o),
(1022,648,cs),
(1182.273,648,o),
(1289,535.136,o),
(1289,310,cs),
(1289,196.667,o),
(1262.667,112.167,o),
(1216,55.5,cs),
(1169.333,-1.167,o),
(1102,-29,o),
(1022,-29,cs),
(866.36,-29,o),
(754,82.355,o),
(754,310,cs)
);
},
{
closed = 1;
nodes = (
(1167,452.64,o),
(1128.315,545,o),
(1022,545,cs),
(915.991,545,o),
(876,452.807,o),
(876,310,cs),
(876,165.94,o),
(915.911,74,o),
(1022,74,cs),
(1127.333,74,o),
(1167,163.333,o),
(1167,310,cs)
);
}
);
userData = {
org.robofab.postScriptHintData = {
};
};
vertWidth = 0;
width = 2025;
}
);
unicode = 8240;
},
{
glyphname = lozenge;
layers = (
{
layerId = "C1664359-F853-4045-A63D-7A2F9FE31172";
shapes = (
{
closed = 1;
nodes = (
(489,101,l),
(742,554,l),
(489,1001,l),
(235,554,l),
(235,554,l)
);
},
{
closed = 1;
nodes = (
(583,1119,l),
(922,554,l),
(587,-6,l),
(387,-6,l),
(56,554,l),
(391,1119,l),
(391,1119,l)
);
}
);
userData = {
org.robofab.postScriptHintData = {
};
};
vertWidth = 0;
width = 978;
}
);
unicode = 9674;
},
{
glyphname = dblgravecomb;
layers = (
{
layerId = "C1664359-F853-4045-A63D-7A2F9FE31172";
shapes = (
{
closed = 1;
nodes = (
(273,1183,l),
(70,1687,l),
(265,1687,l),
(373,1183,l),
(373,1183,l)
);
},
{
closed = 1;
nodes = (
(509,1183,l),
(372,1687,l),
(556,1687,l),
(612,1183,l),
(612,1183,l)
);
}
);
userData = {
org.robofab.postScriptHintData = {
};
};
vertWidth = 0;
width = 714;
}
);
unicode = 783;
},
{
glyphname = breveinvertedcomb;
layers = (
{
layerId = "C1664359-F853-4045-A63D-7A2F9FE31172";
shapes = (
{
closed = 1;
nodes = (
(615.914,1456,o),
(722.412,1352.569,o),
(775,1262,c),
(700,1190,l),
(646.48,1262.252,o),
(555.937,1324,o),
(431,1324,cs),
(307,1324,o),
(220.667,1266,o),
(162,1190,c),
(85,1262,l),
(143.636,1359.726,o),
(255.135,1456,o),
(431,1456,cs)
);
}
);
userData = {
org.robofab.postScriptHintData = {
};
};
vertWidth = 0;
width = 861;
}
);
unicode = 785;
},
{
glyphname = commaaccentcomb;
layers = (
{
layerId = "C1664359-F853-4045-A63D-7A2F9FE31172";
shapes = (
{
closed = 1;
nodes = (
(344,-109,l),
(346,-125,o),
(348,-142.333,o),
(350,-161,cs),
(352.667,-193,o),
(356,-235.333,o),
(356,-282,cs),
(356,-405.479,o),
(307.542,-495.181,o),
(155,-538,c),
(127,-458,l),
(201.667,-448.667,o),
(239,-395.667,o),
(239,-325,c),
(119,-325,l),
(119,-125,l),
(119,-125,l)
);
}
);
userData = {
org.robofab.postScriptHintData = {
};
};
vertWidth = 0;
width = 441;
}
);
unicode = 806;
},
{
glyphname = dieresis;
layers = (
{
layerId = "C1664359-F853-4045-A63D-7A2F9FE31172";
shapes = (
{
closed = 1;
nodes = (
(322,1164,l),
(149,1164,l),
(149,1331,l),
(322,1331,l),
(322,1331,l)
);
},
{
closed = 1;
nodes = (
(698,1164,l),
(524,1164,l),
(524,1331,l),
(698,1331,l),
(698,1331,l)
);
}
);
userData = {
org.robofab.postScriptHintData = {
};
};
vertWidth = 0;
width = 847;
}
);
unicode = 168;
},
{
glyphname = dotaccent;
layers = (
{
layerId = "C1664359-F853-4045-A63D-7A2F9FE31172";
shapes = (
{
closed = 1;
nodes = (
(315.831,1260.874,o),
(298.324,1201.517,o),
(256,1183,cs),
(210.667,1161.667,o),
(157.667,1179.333,o),
(135,1226,cs),
(111.466,1267.837,o),
(129.749,1326.176,o),
(174,1347,cs),
(216.667,1368.333,o),
(270.333,1350.667,o),
(293,1304,cs)
);
}
);
userData = {
org.robofab.postScriptHintData = {
};
};
vertWidth = 0;
width = 421;
}
);
unicode = 729;
},
{
glyphname = grave;
layers = (
{
layerId = "C1664359-F853-4045-A63D-7A2F9FE31172";
shapes = (
{
closed = 1;
nodes = (
(229,1184,l),
(9,1713,l),
(222,1735,l),
(302,1184,l),
(302,1184,l)
);
}
);
userData = {
org.robofab.postScriptHintData = {
};
};
vertWidth = 0;
width = 378;
}
);
unicode = 96;
},
{
glyphname = acute;
layers = (
{
layerId = "C1664359-F853-4045-A63D-7A2F9FE31172";
shapes = (
{
closed = 1;
nodes = (
(387,1707,l),
(147,1155,l),
(75,1155,l),
(162,1707,l),
(162,1707,l)
);
}
);
userData = {
org.robofab.postScriptHintData = {
};
};
vertWidth = 0;
width = 393;
}
);
unicode = 180;
},
{
glyphname = hungarumlaut;
layers = (
{
layerId = "C1664359-F853-4045-A63D-7A2F9FE31172";
shapes = (
{
closed = 1;
nodes = (
(660,1687,l),
(458,1183,l),
(358,1183,l),
(466,1687,l),
(466,1687,l)
);
},
{
closed = 1;
nodes = (
(359,1687,l),
(222,1183,l),
(118,1183,l),
(174,1687,l),
(174,1687,l)
);
}
);
userData = {
org.robofab.postScriptHintData = {
};
};
vertWidth = 0;
width = 714;
}
);
unicode = 733;
},
{
glyphname = circumflex;
layers = (
{
layerId = "C1664359-F853-4045-A63D-7A2F9FE31172";
shapes = (
{
closed = 1;
nodes = (
(470,1665,l),
(692,1172,l),
(496,1172,l),
(381,1539,l),
(369,1539,l),
(257,1172,l),
(62,1172,l),
(281,1665,l),
(281,1665,l)
);
}
);
userData = {
org.robofab.postScriptHintData = {
};
};
vertWidth = 0;
width = 754;
}
);
unicode = 710;
},
{
glyphname = caron;
layers = (
{
layerId = "C1664359-F853-4045-A63D-7A2F9FE31172";
shapes = (
{
closed = 1;
nodes = (
(246,1681,l),
(344,1309,l),
(358,1309,l),
(458,1681,l),
(642,1681,l),
(443,1186,l),
(260,1186,l),
(60,1681,l),
(60,1681,l)
);
}
);
userData = {
org.robofab.postScriptHintData = {
};
};
vertWidth = 0;
width = 703;
}
);
unicode = 711;
},
{
glyphname = breve;
layers = (
{
layerId = "C1664359-F853-4045-A63D-7A2F9FE31172";
shapes = (
{
closed = 1;
nodes = (
(255.135,1190,o),
(143.636,1286.274,o),
(85,1384,c),
(162,1456,l),
(220.667,1380,o),
(307,1322,o),
(431,1322,cs),
(558.105,1322,o),
(644.615,1384,o),
(700,1456,c),
(775,1384,l),
(724.259,1293.793,o),
(614.973,1190,o),
(431,1190,cs)
);
}
);
userData = {
org.robofab.postScriptHintData = {
};
};
vertWidth = 0;
width = 861;
}
);
unicode = 728;
},
{
glyphname = ring;
layers = (
{
layerId = "C1664359-F853-4045-A63D-7A2F9FE31172";
shapes = (
{
closed = 1;
nodes = (
(149.466,1102,o),
(47,1193.334,o),
(47,1347,cs),
(47,1495.472,o),
(149.62,1587,o),
(299,1587,cs),
(442.4,1587,o),
(545,1495.733,o),
(545,1347,cs),
(545,1188.141,o),
(437.192,1102,o),
(299,1102,cs)
);
},
{
closed = 1;
nodes = (
(407.613,1195,o),
(441,1278.255,o),
(441,1347,cs),
(441,1407.022,o),
(411.091,1495,o),
(299,1495,cs),
(168.992,1495,o),
(152,1407.846,o),
(152,1347,cs),
(152,1283.576,o),
(188.01,1195,o),
(299,1195,cs)
);
}
);
userData = {
org.robofab.postScriptHintData = {
};
};
vertWidth = 0;
width = 579;
}
);
unicode = 730;
},
{
glyphname = tilde;
layers = (
{
layerId = "C1664359-F853-4045-A63D-7A2F9FE31172";
shapes = (
{
closed = 1;
nodes = (
(412.348,1414,o),
(512.446,1303,o),
(590,1303,cs),
(632.81,1303,o),
(641,1348.925,o),
(641,1401,c),
(772,1401,l),
(772,1394,ls),
(772,1226.299,o),
(692.991,1177,o),
(601,1177,cs),
(593.667,1177.667,o),
(587,1178.167,o),
(581,1178.5,cs),
(575,1178.833,o),
(569,1179.667,o),
(563,1181,cs),
(468.768,1200.33,o),
(359.137,1285,o),
(307,1285,cs),
(263.764,1285,o),
(255,1238.185,o),
(255,1184,c),
(123,1184,l),
(123,1198,ls),
(123,1283.333,o),
(145,1336.833,o),
(177,1369.5,cs),
(209,1402.167,o),
(251.667,1414,o),
(297,1414,cs)
);
}
);
userData = {
org.robofab.postScriptHintData = {
};
};
vertWidth = 0;
width = 893;
}
);
unicode = 732;
},
{
glyphname = macron;
layers = (
{
layerId = "C1664359-F853-4045-A63D-7A2F9FE31172";
shapes = (
{
closed = 1;
nodes = (
(150,1319,l),
(741,1319,l),
(741,1185,l),
(150,1185,l),
(150,1185,l)
);
}
);
userData = {
org.robofab.postScriptHintData = {
};
};
vertWidth = 0;
width = 890;
}
);
unicode = 175;
},
{
glyphname = cedilla;
layers = (
{
layerId = "C1664359-F853-4045-A63D-7A2F9FE31172";
shapes = (
{
closed = 1;
nodes = (
(498,-462.46,o),
(408.064,-538,o),
(283,-538,cs),
(229.667,-538,o),
(187.667,-526,o),
(157,-514,cs),
(139.667,-506.667,o),
(124.333,-498.667,o),
(111,-490,c),
(101,-394,l),
(120.333,-402,o),
(140.333,-409.333,o),
(161,-416,cs),
(195.667,-426.667,o),
(239.333,-437,o),
(278,-437,cs),
(372.716,-437,o),
(386,-373.322,o),
(386,-345,cs),
(386,-298.333,o),
(359.5,-272.667,o),
(313.5,-258,cs),
(267.5,-243.333,o),
(201.667,-238.667,o),
(123,-232,c),
(123,-218.885,o),
(134.594,-163.843,o),
(143,-105,cs),
(148.333,-73,o),
(154.333,-37.333,o),
(161,2,c),
(263,2,l),
(257,-23.333,o),
(251.333,-47,o),
(246,-69,cs),
(241.333,-87.667,o),
(237.167,-105.333,o),
(233.5,-122,cs),
(229.833,-138.667,o),
(227.333,-149.667,o),
(226,-155,c),
(273.593,-155,o),
(340.293,-160.45,o),
(398.5,-187,cs),
(456.542,-213.475,o),
(498,-263.78,o),
(498,-340,cs)
);
}
);
userData = {
org.robofab.postScriptHintData = {
};
};
vertWidth = 0;
width = 537;
}
);
unicode = 184;
},
{
glyphname = ogonek;
layers = (
{
layerId = "C1664359-F853-4045-A63D-7A2F9FE31172";
shapes = (
{
closed = 1;
nodes = (
(515.333,-435.333,o),
(502,-442,o),
(486,-448,cs),
(459.333,-458.667,o),
(420,-468,o),
(364,-468,cs),
(169.643,-468,o),
(81,-351.965,o),
(81,-218,cs),
(81,-41.237,o),
(234.535,41.037,o),
(373,75,c),
(373,12,l),
(261,-30.667,o),
(202,-105,o),
(202,-193,cs),
(202,-305,o),
(257,-351,o),
(373,-351,cs),
(422.333,-351,o),
(462.333,-340.667,o),
(493,-330,cs),
(510.333,-324,o),
(526,-317,o),
(540,-309,c),
(526,-428,l),
(526,-428,l)
);
}
